<svg width="296" height="296" viewBox="0 0 296 296" fill="none" xmlns="http://www.w3.org/2000/svg">
<path d="M287.897 99.5069L287.595 98.6603H129.345L125.112 108.155H103.948L116.707 79.3077H279.129L278.161 77.4935C274.412 70.5991 270.179 64.0676 265.402 57.8385H99.0497L72.443 117.892H211.705L202.997 137.97V138.212L198.22 148.916H177.056L182.256 137.184H42.3895L86.472 38.5465H247.685C187.215 -16.4872 93.5469 -12.0724 38.5194 48.4647C2.11655 88.5002 -9.55412 145.288 8.10306 196.511L8.40541 197.358H155.71L159.943 187.863H181.107L168.348 216.711H16.8107L17.7782 218.525C21.5274 225.419 25.7603 231.951 30.5374 238.18H186.005L212.612 178.127H72.9872L80.8483 160.407C81.453 159.681 81.8763 158.774 81.9972 157.867L86.7743 147.102H107.878L102.678 158.834H242.726L235.651 174.619L198.523 257.532H48.3155C108.846 312.506 202.514 308.03 257.481 247.493C293.883 207.337 305.554 150.67 287.897 99.5069Z" fill="#FF9000"/>
</svg>
