<svg width="1539" height="387" viewBox="0 0 1539 387" fill="none" xmlns="http://www.w3.org/2000/svg">
<path d="M201.793 30.6911C203.497 29.7125 205.593 29.7174 207.293 30.7038L228.926 43.2607C230.626 44.2471 231.67 46.0652 231.665 48.0302L231.607 73.0438C231.603 75.0087 230.55 76.822 228.846 77.8005L207.155 90.2572C205.451 91.2358 203.354 91.2309 201.655 90.2445L180.022 77.6876C178.322 76.7012 177.278 74.8831 177.283 72.9181L177.34 47.9046C177.345 45.9396 178.397 44.1263 180.101 43.1478L201.793 30.6911Z" fill="#FF9000" stroke="#FF9000" stroke-linejoin="round"/>
<path d="M203.352 4.89975C204.127 4.45495 205.08 4.45716 205.852 4.90553L252.042 31.7156C252.814 32.164 253.289 32.9904 253.287 33.8835L253.163 87.2898C253.161 88.183 252.683 89.0072 251.908 89.452L205.595 116.048C204.821 116.493 203.868 116.491 203.095 116.042L156.906 89.2323C156.134 88.7839 155.659 87.9575 155.661 87.0644L155.785 33.6581C155.787 32.7649 156.265 31.9407 157.04 31.4959L203.352 4.89975Z" stroke="#FF9000" stroke-width="7"/>
<path d="M58.2934 163.404C59.6876 162.603 61.4029 162.607 62.7934 163.414L85.4255 176.55C86.816 177.358 87.6702 178.845 87.6665 180.453L87.606 206.621C87.6023 208.229 86.7412 209.712 85.347 210.513L62.6544 223.545C61.2602 224.345 59.5448 224.341 58.1544 223.534L35.5222 210.398C34.1318 209.591 33.2775 208.103 33.2812 206.495L33.3417 180.327C33.3455 178.719 34.2066 177.236 35.6007 176.435L58.2934 163.404Z" fill="#FF9000" stroke="#FF9000"/>
<path d="M59.3525 137.9C60.127 137.455 61.08 137.457 61.8525 137.906L108.042 164.716C108.814 165.164 109.289 165.99 109.287 166.884L109.163 220.29C109.161 221.183 108.683 222.007 107.908 222.452L61.5955 249.048C60.821 249.493 59.868 249.491 59.0955 249.042L12.9061 222.232C12.1336 221.784 11.659 220.958 11.6611 220.064L11.7846 166.658C11.7866 165.765 12.265 164.941 13.0396 164.496L59.3525 137.9Z" stroke="#FF9000" stroke-width="7"/>
<path d="M197.044 162.97C198.593 162.08 200.499 162.085 202.044 162.982L224.677 176.118C226.221 177.015 227.171 178.668 227.167 180.454L227.106 206.622C227.102 208.409 226.145 210.057 224.596 210.947L201.903 223.978C200.354 224.868 198.448 224.863 196.903 223.967L174.271 210.83C172.726 209.933 171.777 208.281 171.781 206.494L171.842 180.326C171.846 178.54 172.803 176.891 174.352 176.002L197.044 162.97Z" fill="#FF9000"/>
<path d="M198.352 137.9C199.127 137.455 200.08 137.457 200.852 137.906L247.042 164.716C247.814 165.164 248.289 165.99 248.287 166.884L248.163 220.29C248.161 221.183 247.683 222.007 246.908 222.452L200.595 249.048C199.821 249.493 198.868 249.491 198.095 249.042L151.906 222.232C151.134 221.784 150.659 220.958 150.661 220.064L150.785 166.658C150.787 165.765 151.265 164.941 152.04 164.496L198.352 137.9Z" stroke="#FF9000" stroke-width="7"/>
<path d="M336.044 162.97C337.593 162.08 339.499 162.085 341.044 162.982L363.677 176.118C365.221 177.015 366.171 178.668 366.167 180.454L366.106 206.622C366.102 208.409 365.145 210.057 363.596 210.947L340.903 223.978C339.354 224.868 337.448 224.863 335.903 223.967L313.271 210.83C311.726 209.933 310.777 208.281 310.781 206.494L310.842 180.326C310.846 178.54 311.803 176.891 313.352 176.002L336.044 162.97Z" fill="#FF9000"/>
<path d="M337.352 137.9C338.127 137.455 339.08 137.457 339.852 137.906L386.042 164.716C386.814 165.164 387.289 165.99 387.287 166.884L387.163 220.29C387.161 221.183 386.683 222.007 385.908 222.452L339.595 249.048C338.821 249.493 337.868 249.491 337.095 249.042L290.906 222.232C290.134 221.784 289.659 220.958 289.661 220.064L289.785 166.658C289.787 165.765 290.265 164.941 291.04 164.496L337.352 137.9Z" stroke="#FF9000" stroke-width="7"/>
<path d="M197.044 295.97C198.593 295.08 200.499 295.085 202.044 295.982L224.677 309.118C226.221 310.015 227.171 311.668 227.167 313.454L227.106 339.622C227.102 341.409 226.145 343.057 224.596 343.947L201.903 356.978C200.354 357.868 198.448 357.863 196.903 356.967L174.271 343.83C172.726 342.933 171.777 341.281 171.781 339.494L171.842 313.326C171.846 311.54 172.803 309.891 174.352 309.002L197.044 295.97Z" fill="#FF9000"/>
<path d="M198.352 270.9C199.127 270.455 200.08 270.457 200.852 270.906L247.042 297.716C247.814 298.164 248.289 298.99 248.287 299.884L248.163 353.29C248.161 354.183 247.683 355.007 246.908 355.452L200.595 382.048C199.821 382.493 198.868 382.491 198.095 382.042L151.906 355.232C151.134 354.784 150.659 353.958 150.661 353.064L150.785 299.658C150.787 298.765 151.265 297.941 152.04 297.496L198.352 270.9Z" stroke="#FF9000" stroke-width="7"/>
<line x1="201.65" y1="79.6369" x2="72.6501" y2="173.637" stroke="#FF9000" stroke-width="9"/>
<line x1="327.904" y1="214.437" x2="211.904" y2="312.438" stroke="#FF9000" stroke-width="9"/>
<line x1="178" y1="197.5" x2="75" y2="197.5" stroke="#FF9000" stroke-width="9"/>
<line x1="197.5" y1="313" x2="197.5" y2="200" stroke="#FF9000" stroke-width="9"/>
<path d="M499.134 216.016C499.134 213.061 498.67 210.453 497.743 208.193C496.874 205.876 495.31 203.79 493.05 201.936C490.848 200.081 487.777 198.314 483.837 196.634C479.955 194.953 475.03 193.244 469.062 191.506C462.804 189.652 457.154 187.595 452.113 185.335C447.072 183.017 442.756 180.381 439.163 177.426C435.571 174.471 432.818 171.081 430.906 167.257C428.994 163.433 428.038 159.058 428.038 154.133C428.038 149.208 429.052 144.659 431.08 140.487C433.108 136.315 436.005 132.694 439.771 129.623C443.596 126.494 448.144 124.061 453.417 122.322C458.69 120.584 464.571 119.715 471.061 119.715C480.563 119.715 488.617 121.54 495.223 125.19C501.886 128.783 506.956 133.505 510.433 139.357C513.909 145.152 515.647 151.352 515.647 157.957H498.96C498.96 153.206 497.946 149.005 495.918 145.354C493.89 141.646 490.819 138.749 486.705 136.663C482.591 134.519 477.376 133.447 471.061 133.447C465.092 133.447 460.167 134.345 456.285 136.142C452.403 137.938 449.506 140.371 447.594 143.442C445.74 146.513 444.812 150.019 444.812 153.959C444.812 156.624 445.363 159.058 446.464 161.26C447.623 163.404 449.39 165.403 451.766 167.257C454.199 169.111 457.27 170.82 460.979 172.385C464.745 173.949 469.235 175.456 474.45 176.904C481.635 178.932 487.835 181.192 493.05 183.684C498.265 186.175 502.552 188.985 505.913 192.114C509.332 195.185 511.852 198.691 513.475 202.631C515.155 206.513 515.995 210.917 515.995 215.842C515.995 220.999 514.952 225.663 512.866 229.835C510.78 234.007 507.796 237.57 503.914 240.525C500.032 243.48 495.368 245.769 489.921 247.392C484.532 248.956 478.506 249.738 471.843 249.738C465.991 249.738 460.225 248.927 454.547 247.305C448.926 245.682 443.799 243.249 439.163 240.004C434.586 236.759 430.906 232.761 428.125 228.01C425.402 223.201 424.04 217.638 424.04 211.322H440.728C440.728 215.668 441.568 219.405 443.248 222.534C444.928 225.605 447.217 228.155 450.114 230.183C453.069 232.211 456.401 233.717 460.109 234.702C463.876 235.629 467.787 236.093 471.843 236.093C477.695 236.093 482.649 235.282 486.705 233.659C490.761 232.037 493.832 229.719 495.918 226.706C498.062 223.693 499.134 220.13 499.134 216.016ZM550.935 172.646V248H534.769V153.959H550.065L550.935 172.646ZM547.632 197.416L540.157 197.155C540.215 190.724 541.055 184.785 542.678 179.338C544.3 173.833 546.705 169.053 549.892 164.997C553.078 160.941 557.048 157.812 561.799 155.61C566.55 153.351 572.055 152.221 578.312 152.221C582.716 152.221 586.772 152.858 590.48 154.133C594.189 155.35 597.405 157.291 600.128 159.956C602.851 162.621 604.966 166.04 606.473 170.212C607.979 174.384 608.732 179.425 608.732 185.335V248H592.653V186.117C592.653 181.192 591.813 177.252 590.133 174.297C588.51 171.342 586.193 169.198 583.18 167.865C580.167 166.475 576.632 165.779 572.576 165.779C567.825 165.779 563.856 166.619 560.669 168.3C557.482 169.98 554.933 172.298 553.021 175.253C551.108 178.208 549.718 181.598 548.849 185.422C548.037 189.188 547.632 193.186 547.632 197.416ZM608.559 188.551L597.781 191.854C597.839 186.697 598.679 181.743 600.302 176.991C601.982 172.24 604.387 168.01 607.516 164.302C610.702 160.593 614.614 157.667 619.249 155.523C623.884 153.322 629.186 152.221 635.154 152.221C640.195 152.221 644.657 152.887 648.539 154.22C652.479 155.552 655.782 157.609 658.447 160.391C661.171 163.114 663.228 166.619 664.618 170.907C666.009 175.195 666.704 180.294 666.704 186.204V248H650.538V186.03C650.538 180.757 649.698 176.673 648.018 173.775C646.395 170.82 644.077 168.763 641.064 167.604C638.109 166.388 634.575 165.779 630.461 165.779C626.926 165.779 623.798 166.388 621.074 167.604C618.351 168.821 616.062 170.502 614.208 172.646C612.354 174.731 610.934 177.136 609.949 179.859C609.022 182.583 608.559 185.48 608.559 188.551ZM746.491 231.921V183.51C746.491 179.801 745.738 176.586 744.231 173.862C742.783 171.081 740.581 168.937 737.626 167.431C734.671 165.924 731.021 165.171 726.675 165.171C722.619 165.171 719.055 165.866 715.984 167.257C712.971 168.647 710.596 170.473 708.857 172.732C707.177 174.992 706.337 177.426 706.337 180.033H690.258C690.258 176.673 691.127 173.341 692.865 170.038C694.604 166.735 697.095 163.751 700.34 161.086C703.643 158.363 707.583 156.219 712.16 154.654C716.796 153.032 721.952 152.221 727.631 152.221C734.468 152.221 740.494 153.38 745.709 155.697C750.982 158.015 755.096 161.521 758.051 166.214C761.064 170.849 762.57 176.673 762.57 183.684V227.488C762.57 230.617 762.831 233.949 763.353 237.483C763.932 241.018 764.772 244.06 765.873 246.609V248H749.099C748.287 246.146 747.65 243.683 747.187 240.612C746.723 237.483 746.491 234.586 746.491 231.921ZM749.272 190.984L749.446 202.283H733.193C728.616 202.283 724.531 202.66 720.938 203.413C717.346 204.108 714.333 205.18 711.899 206.629C709.466 208.077 707.612 209.903 706.337 212.104C705.062 214.248 704.425 216.769 704.425 219.666C704.425 222.621 705.091 225.315 706.424 227.749C707.757 230.183 709.756 232.124 712.421 233.572C715.144 234.963 718.476 235.658 722.416 235.658C727.341 235.658 731.687 234.615 735.453 232.529C739.219 230.443 742.203 227.894 744.405 224.881C746.665 221.868 747.882 218.942 748.056 216.103L754.922 223.838C754.516 226.271 753.415 228.966 751.619 231.921C749.823 234.876 747.418 237.715 744.405 240.438C741.45 243.104 737.916 245.335 733.802 247.131C729.746 248.869 725.168 249.738 720.069 249.738C713.696 249.738 708.104 248.493 703.295 246.001C698.544 243.509 694.835 240.178 692.17 236.006C689.562 231.776 688.259 227.054 688.259 221.839C688.259 216.798 689.244 212.365 691.214 208.541C693.184 204.659 696.023 201.443 699.731 198.894C703.44 196.286 707.901 194.316 713.116 192.983C718.331 191.651 724.154 190.984 730.586 190.984H749.272ZM803.941 168.734V248H787.862V153.959H803.507L803.941 168.734ZM833.318 153.438L833.231 168.387C831.899 168.097 830.624 167.923 829.407 167.865C828.248 167.749 826.916 167.691 825.409 167.691C821.701 167.691 818.427 168.271 815.588 169.43C812.749 170.589 810.344 172.211 808.374 174.297C806.404 176.383 804.84 178.874 803.681 181.771C802.58 184.611 801.855 187.74 801.508 191.158L796.988 193.766C796.988 188.087 797.539 182.757 798.64 177.773C799.799 172.79 801.566 168.387 803.941 164.562C806.317 160.68 809.33 157.667 812.98 155.523C816.689 153.322 821.092 152.221 826.191 152.221C827.35 152.221 828.683 152.366 830.189 152.655C831.696 152.887 832.739 153.148 833.318 153.438ZM891.898 153.959V166.301H841.054V153.959H891.898ZM858.263 131.101H874.342V224.707C874.342 227.894 874.834 230.299 875.819 231.921C876.804 233.543 878.079 234.615 879.644 235.137C881.208 235.658 882.888 235.919 884.685 235.919C886.017 235.919 887.408 235.803 888.856 235.571C890.363 235.282 891.493 235.05 892.246 234.876L892.333 248C891.058 248.406 889.378 248.782 887.292 249.13C885.264 249.535 882.801 249.738 879.904 249.738C875.964 249.738 872.343 248.956 869.04 247.392C865.737 245.827 863.101 243.22 861.131 239.569C859.219 235.861 858.263 230.878 858.263 224.62V131.101ZM948.653 248H921.102L921.275 227.662H948.653C955.491 227.662 961.256 226.127 965.949 223.056C970.643 219.927 974.177 215.378 976.553 209.41C978.986 203.442 980.203 196.228 980.203 187.769V181.598C980.203 175.108 979.508 169.401 978.117 164.476C976.785 159.55 974.785 155.408 972.12 152.047C969.455 148.686 966.181 146.166 962.299 144.485C958.417 142.747 953.955 141.878 948.914 141.878H920.58V121.453H948.914C957.374 121.453 965.109 122.902 972.12 125.799C979.189 128.638 985.302 132.723 990.459 138.054C995.616 143.384 999.585 149.758 1002.37 157.175C1005.21 164.534 1006.62 172.732 1006.62 181.771V187.769C1006.62 196.75 1005.21 204.949 1002.37 212.365C999.585 219.782 995.616 226.156 990.459 231.486C985.36 236.759 979.247 240.844 972.12 243.741C965.051 246.58 957.229 248 948.653 248ZM935.877 121.453V248H909.803V121.453H935.877ZM1049.04 174.471V248H1024.01V153.959H1047.56L1049.04 174.471ZM1077.37 153.351L1076.94 176.557C1075.72 176.383 1074.24 176.238 1072.51 176.122C1070.83 175.948 1069.29 175.861 1067.9 175.861C1064.36 175.861 1061.29 176.325 1058.69 177.252C1056.14 178.121 1053.99 179.425 1052.25 181.163C1050.57 182.901 1049.3 185.016 1048.43 187.508C1047.62 189.999 1047.16 192.839 1047.04 196.025L1042 194.461C1042 188.377 1042.61 182.785 1043.82 177.687C1045.04 172.53 1046.81 168.039 1049.13 164.215C1051.5 160.391 1054.4 157.436 1057.82 155.35C1061.24 153.264 1065.15 152.221 1069.55 152.221C1070.94 152.221 1072.36 152.337 1073.81 152.568C1075.26 152.742 1076.45 153.003 1077.37 153.351ZM1082.59 201.936V200.11C1082.59 193.215 1083.57 186.87 1085.54 181.076C1087.51 175.224 1090.38 170.154 1094.15 165.866C1097.91 161.578 1102.55 158.247 1108.05 155.871C1113.56 153.438 1119.87 152.221 1127 152.221C1134.13 152.221 1140.47 153.438 1146.04 155.871C1151.6 158.247 1156.26 161.578 1160.03 165.866C1163.85 170.154 1166.75 175.224 1168.72 181.076C1170.69 186.87 1171.67 193.215 1171.67 200.11V201.936C1171.67 208.773 1170.69 215.118 1168.72 220.97C1166.75 226.764 1163.85 231.834 1160.03 236.18C1156.26 240.467 1151.63 243.799 1146.12 246.175C1140.62 248.55 1134.3 249.738 1127.17 249.738C1120.05 249.738 1113.7 248.55 1108.14 246.175C1102.64 243.799 1097.97 240.467 1094.15 236.18C1090.38 231.834 1087.51 226.764 1085.54 220.97C1083.57 215.118 1082.59 208.773 1082.59 201.936ZM1107.62 200.11V201.936C1107.62 205.876 1107.97 209.555 1108.66 212.974C1109.36 216.392 1110.46 219.405 1111.96 222.013C1113.53 224.562 1115.56 226.561 1118.05 228.01C1120.54 229.458 1123.58 230.183 1127.17 230.183C1130.65 230.183 1133.64 229.458 1136.13 228.01C1138.62 226.561 1140.62 224.562 1142.12 222.013C1143.63 219.405 1144.73 216.392 1145.43 212.974C1146.18 209.555 1146.56 205.876 1146.56 201.936V200.11C1146.56 196.286 1146.18 192.694 1145.43 189.333C1144.73 185.914 1143.6 182.901 1142.04 180.294C1140.53 177.629 1138.53 175.543 1136.04 174.036C1133.55 172.53 1130.54 171.776 1127 171.776C1123.47 171.776 1120.45 172.53 1117.96 174.036C1115.53 175.543 1113.53 177.629 1111.96 180.294C1110.46 182.901 1109.36 185.914 1108.66 189.333C1107.97 192.694 1107.62 196.286 1107.62 200.11ZM1212.09 172.037V284.156H1187.06V153.959H1210.26L1212.09 172.037ZM1271.63 199.937V201.762C1271.63 208.599 1270.81 214.944 1269.19 220.796C1267.63 226.648 1265.31 231.747 1262.24 236.093C1259.17 240.381 1255.34 243.741 1250.77 246.175C1246.25 248.55 1241.03 249.738 1235.12 249.738C1229.39 249.738 1224.4 248.579 1220.17 246.262C1215.94 243.944 1212.38 240.699 1209.48 236.527C1206.64 232.298 1204.35 227.401 1202.62 221.839C1200.88 216.276 1199.55 210.308 1198.62 203.935V199.154C1199.55 192.317 1200.88 186.059 1202.62 180.381C1204.35 174.645 1206.64 169.69 1209.48 165.519C1212.38 161.289 1215.91 158.015 1220.09 155.697C1224.32 153.38 1229.27 152.221 1234.95 152.221C1240.92 152.221 1246.16 153.351 1250.68 155.61C1255.26 157.87 1259.08 161.115 1262.15 165.345C1265.28 169.575 1267.63 174.616 1269.19 180.468C1270.81 186.32 1271.63 192.81 1271.63 199.937ZM1246.51 201.762V199.937C1246.51 195.938 1246.16 192.259 1245.46 188.898C1244.83 185.48 1243.78 182.496 1242.34 179.946C1240.95 177.397 1239.09 175.427 1236.77 174.036C1234.51 172.588 1231.76 171.863 1228.52 171.863C1225.1 171.863 1222.17 172.414 1219.74 173.515C1217.36 174.616 1215.42 176.209 1213.92 178.295C1212.41 180.381 1211.28 182.872 1210.53 185.77C1209.77 188.667 1209.31 191.94 1209.13 195.591V207.672C1209.42 211.96 1210.24 215.813 1211.57 219.231C1212.9 222.592 1214.96 225.257 1217.74 227.228C1220.52 229.198 1224.17 230.183 1228.69 230.183C1231.99 230.183 1234.77 229.458 1237.03 228.01C1239.29 226.503 1241.12 224.446 1242.51 221.839C1243.96 219.231 1244.97 216.218 1245.55 212.8C1246.19 209.381 1246.51 205.702 1246.51 201.762ZM1312.21 172.037V284.156H1287.18V153.959H1310.39L1312.21 172.037ZM1371.75 199.937V201.762C1371.75 208.599 1370.94 214.944 1369.32 220.796C1367.75 226.648 1365.44 231.747 1362.36 236.093C1359.29 240.381 1355.47 243.741 1350.89 246.175C1346.37 248.55 1341.16 249.738 1335.25 249.738C1329.51 249.738 1324.53 248.579 1320.3 246.262C1316.07 243.944 1312.5 240.699 1309.61 236.527C1306.77 232.298 1304.48 227.401 1302.74 221.839C1301 216.276 1299.67 210.308 1298.74 203.935V199.154C1299.67 192.317 1301 186.059 1302.74 180.381C1304.48 174.645 1306.77 169.69 1309.61 165.519C1312.5 161.289 1316.04 158.015 1320.21 155.697C1324.44 153.38 1329.39 152.221 1335.07 152.221C1341.04 152.221 1346.29 153.351 1350.8 155.61C1355.38 157.87 1359.21 161.115 1362.28 165.345C1365.41 169.575 1367.75 174.616 1369.32 180.468C1370.94 186.32 1371.75 192.81 1371.75 199.937ZM1346.63 201.762V199.937C1346.63 195.938 1346.29 192.259 1345.59 188.898C1344.95 185.48 1343.91 182.496 1342.46 179.946C1341.07 177.397 1339.22 175.427 1336.9 174.036C1334.64 172.588 1331.89 171.863 1328.64 171.863C1325.22 171.863 1322.3 172.414 1319.86 173.515C1317.49 174.616 1315.55 176.209 1314.04 178.295C1312.53 180.381 1311.4 182.872 1310.65 185.77C1309.9 188.667 1309.43 191.94 1309.26 195.591V207.672C1309.55 211.96 1310.36 215.813 1311.69 219.231C1313.03 222.592 1315.08 225.257 1317.86 227.228C1320.65 229.198 1324.3 230.183 1328.82 230.183C1332.12 230.183 1334.9 229.458 1337.16 228.01C1339.42 226.503 1341.24 224.446 1342.63 221.839C1344.08 219.231 1345.1 216.218 1345.68 212.8C1346.31 209.381 1346.63 205.702 1346.63 201.762ZM1430.59 249.738C1423.29 249.738 1416.74 248.579 1410.95 246.262C1405.15 243.886 1400.23 240.612 1396.17 236.44C1392.18 232.269 1389.1 227.43 1386.96 221.926C1384.82 216.363 1383.75 210.453 1383.75 204.195V200.719C1383.75 193.592 1384.76 187.073 1386.79 181.163C1388.82 175.253 1391.71 170.125 1395.48 165.779C1399.3 161.434 1403.94 158.102 1409.38 155.784C1414.83 153.409 1420.97 152.221 1427.81 152.221C1434.47 152.221 1440.38 153.322 1445.54 155.523C1450.7 157.725 1455.01 160.854 1458.49 164.91C1462.03 168.966 1464.69 173.833 1466.49 179.512C1468.28 185.132 1469.18 191.39 1469.18 198.285V208.715H1394.44V192.027H1444.58V190.115C1444.58 186.639 1443.95 183.539 1442.67 180.815C1441.46 178.034 1439.6 175.832 1437.11 174.21C1434.62 172.588 1431.43 171.776 1427.55 171.776C1424.25 171.776 1421.41 172.501 1419.03 173.949C1416.66 175.398 1414.72 177.426 1413.21 180.033C1411.76 182.641 1410.66 185.712 1409.91 189.246C1409.21 192.723 1408.86 196.547 1408.86 200.719V204.195C1408.86 207.962 1409.38 211.438 1410.43 214.625C1411.53 217.812 1413.06 220.564 1415.03 222.882C1417.06 225.2 1419.5 226.996 1422.33 228.271C1425.23 229.545 1428.51 230.183 1432.16 230.183C1436.68 230.183 1440.88 229.313 1444.76 227.575C1448.7 225.779 1452.09 223.085 1454.93 219.492L1467.1 232.703C1465.13 235.542 1462.43 238.266 1459.01 240.873C1455.65 243.48 1451.6 245.624 1446.84 247.305C1442.09 248.927 1436.68 249.738 1430.59 249.738ZM1508.47 174.471V248H1483.44V153.959H1506.99L1508.47 174.471ZM1536.8 153.351L1536.37 176.557C1535.15 176.383 1533.67 176.238 1531.93 176.122C1530.25 175.948 1528.72 175.861 1527.33 175.861C1523.79 175.861 1520.72 176.325 1518.11 177.252C1515.56 178.121 1513.42 179.425 1511.68 181.163C1510 182.901 1508.73 185.016 1507.86 187.508C1507.05 189.999 1506.58 192.839 1506.47 196.025L1501.43 194.461C1501.43 188.377 1502.04 182.785 1503.25 177.687C1504.47 172.53 1506.24 168.039 1508.55 164.215C1510.93 160.391 1513.83 157.436 1517.25 155.35C1520.66 153.264 1524.57 152.221 1528.98 152.221C1530.37 152.221 1531.79 152.337 1533.24 152.568C1534.69 152.742 1535.87 153.003 1536.8 153.351Z" fill="#FF9000"/>
</svg>
