<svg width="1539" height="387" viewBox="0 0 1539 387" fill="none" xmlns="http://www.w3.org/2000/svg">
<path d="M207.293 30.7038L228.926 43.2607C230.626 44.2471 231.67 46.0652 231.665 48.0301L231.607 73.0437C231.603 75.0087 230.55 76.822 228.846 77.8005L207.155 90.2572C205.451 91.2357 203.354 91.2309 201.655 90.2445L180.022 77.6876C178.322 76.7012 177.278 74.8831 177.283 72.9181L177.34 47.9045C177.345 45.9396 178.397 44.1263 180.101 43.1478L201.793 30.6911C203.497 29.7125 205.593 29.7174 207.293 30.7038Z" fill="white" stroke="white" stroke-linejoin="round"/>
<path d="M205.852 4.90553L252.042 31.7156C252.814 32.164 253.289 32.9904 253.287 33.8835L253.163 87.2898C253.161 88.183 252.683 89.0072 251.908 89.452L205.595 116.048C204.821 116.493 203.868 116.491 203.095 116.042L156.906 89.2323C156.134 88.7839 155.659 87.9575 155.661 87.0644L155.785 33.6581C155.787 32.7649 156.265 31.9407 157.04 31.4959L203.352 4.89975C204.127 4.45495 205.08 4.45716 205.852 4.90553Z" stroke="white" stroke-width="7"/>
<path d="M62.7934 163.414L85.4255 176.55C86.816 177.358 87.6702 178.845 87.6665 180.453L87.606 206.621C87.6023 208.229 86.7412 209.712 85.347 210.513L62.6544 223.545C61.2602 224.345 59.5448 224.341 58.1544 223.534L35.5222 210.398C34.1318 209.591 33.2775 208.103 33.2812 206.495L33.3417 180.327C33.3455 178.719 34.2066 177.236 35.6007 176.435L58.2934 163.404C59.6876 162.603 61.4029 162.607 62.7934 163.414Z" fill="white" stroke="white"/>
<path d="M61.8525 137.906L108.042 164.716C108.814 165.164 109.289 165.99 109.287 166.884L109.163 220.29C109.161 221.183 108.683 222.007 107.908 222.452L61.5955 249.048C60.821 249.493 59.868 249.491 59.0955 249.042L12.9061 222.232C12.1336 221.784 11.659 220.958 11.6611 220.064L11.7846 166.658C11.7866 165.765 12.265 164.941 13.0396 164.496L59.3525 137.9C60.127 137.455 61.08 137.457 61.8525 137.906Z" stroke="white" stroke-width="7"/>
<path d="M201.291 164.279L223.924 177.415C225.005 178.043 225.669 179.2 225.667 180.45L225.606 206.619C225.603 207.869 224.933 209.023 223.849 209.646L201.156 222.678C200.072 223.3 198.738 223.297 197.656 222.669L175.024 209.533C173.943 208.905 173.278 207.748 173.281 206.498L173.342 180.329C173.345 179.079 174.014 177.925 175.099 177.302L197.791 164.271C198.876 163.648 200.21 163.651 201.291 164.279Z" fill="white" stroke="white" stroke-width="3"/>
<path d="M200.852 137.906L247.042 164.716C247.814 165.164 248.289 165.99 248.287 166.884L248.163 220.29C248.161 221.183 247.683 222.007 246.908 222.452L200.595 249.048C199.821 249.493 198.868 249.491 198.095 249.042L151.906 222.232C151.134 221.784 150.659 220.958 150.661 220.064L150.785 166.658C150.787 165.765 151.265 164.941 152.04 164.496L198.352 137.9C199.127 137.455 200.08 137.457 200.852 137.906Z" stroke="white" stroke-width="7"/>
<path d="M340.291 164.279L362.924 177.415C364.005 178.043 364.669 179.2 364.667 180.45L364.606 206.619C364.603 207.869 363.933 209.023 362.849 209.646L340.156 222.678C339.072 223.3 337.738 223.297 336.656 222.669L314.024 209.533C312.943 208.905 312.278 207.748 312.281 206.498L312.342 180.329C312.345 179.079 313.014 177.925 314.099 177.302L336.791 164.271C337.876 163.648 339.21 163.651 340.291 164.279Z" fill="white" stroke="white" stroke-width="3"/>
<path d="M339.852 137.906L386.042 164.716C386.814 165.164 387.289 165.99 387.287 166.884L387.163 220.29C387.161 221.183 386.683 222.007 385.908 222.452L339.595 249.048C338.821 249.493 337.868 249.491 337.095 249.042L290.906 222.232C290.134 221.784 289.659 220.958 289.661 220.064L289.785 166.658C289.787 165.765 290.265 164.941 291.04 164.496L337.352 137.9C338.127 137.455 339.08 137.457 339.852 137.906Z" stroke="white" stroke-width="7"/>
<path d="M201.291 297.279L223.924 310.415C225.005 311.043 225.669 312.2 225.667 313.45L225.606 339.619C225.603 340.869 224.933 342.023 223.849 342.646L201.156 355.678C200.072 356.3 198.738 356.297 197.656 355.669L175.024 342.533C173.943 341.905 173.278 340.748 173.281 339.498L173.342 313.329C173.345 312.079 174.014 310.925 175.099 310.302L197.791 297.271C198.876 296.648 200.21 296.651 201.291 297.279Z" fill="white" stroke="white" stroke-width="3"/>
<path d="M200.852 270.906L247.042 297.716C247.814 298.164 248.289 298.99 248.287 299.884L248.163 353.29C248.161 354.183 247.683 355.007 246.908 355.452L200.595 382.048C199.821 382.493 198.868 382.491 198.095 382.042L151.906 355.232C151.134 354.784 150.659 353.958 150.661 353.064L150.785 299.658C150.787 298.765 151.265 297.941 152.04 297.496L198.352 270.9C199.127 270.455 200.08 270.457 200.852 270.906Z" stroke="white" stroke-width="7"/>
<line x1="201.65" y1="79.6369" x2="72.6501" y2="173.637" stroke="white" stroke-width="9"/>
<line x1="327.904" y1="214.437" x2="211.904" y2="312.438" stroke="white" stroke-width="9"/>
<line x1="178" y1="197.5" x2="75" y2="197.5" stroke="white" stroke-width="9"/>
<line x1="197.5" y1="313" x2="197.5" y2="200" stroke="white" stroke-width="9"/>
<mask id="path-15-outside-1_64_2" maskUnits="userSpaceOnUse" x="423" y="118" width="1115" height="168" fill="black">
<rect fill="white" x="423" y="118" width="1115" height="168"/>
<path d="M499.134 216.016C499.134 213.061 498.67 210.453 497.743 208.193C496.874 205.876 495.31 203.79 493.05 201.936C490.848 200.081 487.777 198.314 483.837 196.634C479.955 194.953 475.03 193.244 469.062 191.506C462.804 189.652 457.154 187.595 452.113 185.335C447.072 183.017 442.756 180.381 439.163 177.426C435.571 174.471 432.818 171.081 430.906 167.257C428.994 163.433 428.038 159.058 428.038 154.133C428.038 149.208 429.052 144.659 431.08 140.487C433.108 136.315 436.005 132.694 439.771 129.623C443.596 126.494 448.144 124.061 453.417 122.322C458.69 120.584 464.571 119.715 471.061 119.715C480.563 119.715 488.617 121.54 495.223 125.19C501.886 128.783 506.956 133.505 510.433 139.357C513.909 145.152 515.647 151.352 515.647 157.957H498.96C498.96 153.206 497.946 149.005 495.918 145.354C493.89 141.646 490.819 138.749 486.705 136.663C482.591 134.519 477.376 133.447 471.061 133.447C465.092 133.447 460.167 134.345 456.285 136.142C452.403 137.938 449.506 140.371 447.594 143.442C445.74 146.513 444.812 150.019 444.812 153.959C444.812 156.624 445.363 159.058 446.464 161.26C447.623 163.404 449.39 165.403 451.766 167.257C454.199 169.111 457.27 170.82 460.979 172.385C464.745 173.949 469.235 175.456 474.45 176.904C481.635 178.932 487.835 181.192 493.05 183.684C498.265 186.175 502.552 188.985 505.913 192.114C509.332 195.185 511.852 198.691 513.475 202.631C515.155 206.513 515.995 210.917 515.995 215.842C515.995 220.999 514.952 225.663 512.866 229.835C510.78 234.007 507.796 237.57 503.914 240.525C500.032 243.48 495.368 245.769 489.921 247.392C484.532 248.956 478.506 249.738 471.843 249.738C465.991 249.738 460.225 248.927 454.547 247.305C448.926 245.682 443.799 243.249 439.163 240.004C434.586 236.759 430.906 232.761 428.125 228.01C425.402 223.201 424.04 217.638 424.04 211.322H440.728C440.728 215.668 441.568 219.405 443.248 222.534C444.928 225.605 447.217 228.155 450.114 230.183C453.069 232.211 456.401 233.717 460.109 234.702C463.876 235.629 467.787 236.093 471.843 236.093C477.695 236.093 482.649 235.282 486.705 233.659C490.761 232.037 493.832 229.719 495.918 226.706C498.062 223.693 499.134 220.13 499.134 216.016ZM550.935 172.646V248H534.769V153.959H550.065L550.935 172.646ZM547.632 197.416L540.157 197.155C540.215 190.724 541.055 184.785 542.678 179.338C544.3 173.833 546.705 169.053 549.892 164.997C553.078 160.941 557.048 157.812 561.799 155.61C566.55 153.351 572.055 152.221 578.312 152.221C582.716 152.221 586.772 152.858 590.48 154.133C594.189 155.35 597.405 157.291 600.128 159.956C602.851 162.621 604.966 166.04 606.473 170.212C607.979 174.384 608.732 179.425 608.732 185.335V248H592.653V186.117C592.653 181.192 591.813 177.252 590.133 174.297C588.51 171.342 586.193 169.198 583.18 167.865C580.167 166.475 576.632 165.779 572.576 165.779C567.825 165.779 563.856 166.619 560.669 168.3C557.482 169.98 554.933 172.298 553.021 175.253C551.108 178.208 549.718 181.598 548.849 185.422C548.037 189.188 547.632 193.186 547.632 197.416ZM608.559 188.551L597.781 191.854C597.839 186.697 598.679 181.743 600.302 176.991C601.982 172.24 604.387 168.01 607.516 164.302C610.702 160.593 614.614 157.667 619.249 155.523C623.884 153.322 629.186 152.221 635.154 152.221C640.195 152.221 644.657 152.887 648.539 154.22C652.479 155.552 655.782 157.609 658.447 160.391C661.171 163.114 663.228 166.619 664.618 170.907C666.009 175.195 666.704 180.294 666.704 186.204V248H650.538V186.03C650.538 180.757 649.698 176.673 648.018 173.775C646.395 170.82 644.077 168.763 641.064 167.604C638.109 166.388 634.575 165.779 630.461 165.779C626.926 165.779 623.798 166.388 621.074 167.604C618.351 168.821 616.062 170.502 614.208 172.646C612.354 174.731 610.934 177.136 609.949 179.859C609.022 182.583 608.559 185.48 608.559 188.551ZM746.491 231.921V183.51C746.491 179.801 745.738 176.586 744.231 173.862C742.783 171.081 740.581 168.937 737.626 167.431C734.671 165.924 731.021 165.171 726.675 165.171C722.619 165.171 719.055 165.866 715.984 167.257C712.971 168.647 710.596 170.473 708.857 172.732C707.177 174.992 706.337 177.426 706.337 180.033H690.258C690.258 176.673 691.127 173.341 692.865 170.038C694.604 166.735 697.095 163.751 700.34 161.086C703.643 158.363 707.583 156.219 712.16 154.654C716.796 153.032 721.952 152.221 727.631 152.221C734.468 152.221 740.494 153.38 745.709 155.697C750.982 158.015 755.096 161.521 758.051 166.214C761.064 170.849 762.57 176.673 762.57 183.684V227.488C762.57 230.617 762.831 233.949 763.353 237.483C763.932 241.018 764.772 244.06 765.873 246.609V248H749.099C748.287 246.146 747.65 243.683 747.187 240.612C746.723 237.483 746.491 234.586 746.491 231.921ZM749.272 190.984L749.446 202.283H733.193C728.616 202.283 724.531 202.66 720.938 203.413C717.346 204.108 714.333 205.18 711.899 206.629C709.466 208.077 707.612 209.903 706.337 212.104C705.062 214.248 704.425 216.769 704.425 219.666C704.425 222.621 705.091 225.315 706.424 227.749C707.757 230.183 709.756 232.124 712.421 233.572C715.144 234.963 718.476 235.658 722.416 235.658C727.341 235.658 731.687 234.615 735.453 232.529C739.219 230.443 742.203 227.894 744.405 224.881C746.665 221.868 747.882 218.942 748.056 216.103L754.922 223.838C754.516 226.271 753.415 228.966 751.619 231.921C749.823 234.876 747.418 237.715 744.405 240.438C741.45 243.104 737.916 245.335 733.802 247.131C729.746 248.869 725.168 249.738 720.069 249.738C713.696 249.738 708.104 248.493 703.295 246.001C698.544 243.509 694.835 240.178 692.17 236.006C689.562 231.776 688.259 227.054 688.259 221.839C688.259 216.798 689.244 212.365 691.214 208.541C693.184 204.659 696.023 201.443 699.731 198.894C703.44 196.286 707.901 194.316 713.116 192.983C718.331 191.651 724.154 190.984 730.586 190.984H749.272ZM803.941 168.734V248H787.862V153.959H803.507L803.941 168.734ZM833.318 153.438L833.231 168.387C831.899 168.097 830.624 167.923 829.407 167.865C828.248 167.749 826.916 167.691 825.409 167.691C821.701 167.691 818.427 168.271 815.588 169.43C812.749 170.589 810.344 172.211 808.374 174.297C806.404 176.383 804.84 178.874 803.681 181.771C802.58 184.611 801.855 187.74 801.508 191.158L796.988 193.766C796.988 188.087 797.539 182.757 798.64 177.773C799.799 172.79 801.566 168.387 803.941 164.562C806.317 160.68 809.33 157.667 812.98 155.523C816.689 153.322 821.092 152.221 826.191 152.221C827.35 152.221 828.683 152.366 830.189 152.655C831.696 152.887 832.739 153.148 833.318 153.438ZM891.898 153.959V166.301H841.054V153.959H891.898ZM858.263 131.101H874.342V224.707C874.342 227.894 874.834 230.299 875.819 231.921C876.804 233.543 878.079 234.615 879.644 235.137C881.208 235.658 882.888 235.919 884.685 235.919C886.017 235.919 887.408 235.803 888.856 235.571C890.363 235.282 891.493 235.05 892.246 234.876L892.333 248C891.058 248.406 889.378 248.782 887.292 249.13C885.264 249.535 882.801 249.738 879.904 249.738C875.964 249.738 872.343 248.956 869.04 247.392C865.737 245.827 863.101 243.22 861.131 239.569C859.219 235.861 858.263 230.878 858.263 224.62V131.101ZM948.653 248H921.102L921.275 227.662H948.653C955.491 227.662 961.256 226.127 965.949 223.056C970.643 219.927 974.177 215.378 976.553 209.41C978.986 203.442 980.203 196.228 980.203 187.769V181.598C980.203 175.108 979.508 169.401 978.117 164.476C976.785 159.55 974.785 155.408 972.12 152.047C969.455 148.686 966.181 146.166 962.299 144.485C958.417 142.747 953.955 141.878 948.914 141.878H920.58V121.453H948.914C957.374 121.453 965.109 122.902 972.12 125.799C979.189 128.638 985.302 132.723 990.459 138.054C995.616 143.384 999.585 149.758 1002.37 157.175C1005.21 164.534 1006.62 172.732 1006.62 181.771V187.769C1006.62 196.75 1005.21 204.949 1002.37 212.365C999.585 219.782 995.616 226.156 990.459 231.486C985.36 236.759 979.247 240.844 972.12 243.741C965.051 246.58 957.229 248 948.653 248ZM935.877 121.453V248H909.803V121.453H935.877ZM1049.04 174.471V248H1024.01V153.959H1047.56L1049.04 174.471ZM1077.37 153.351L1076.94 176.557C1075.72 176.383 1074.24 176.238 1072.51 176.122C1070.83 175.948 1069.29 175.861 1067.9 175.861C1064.36 175.861 1061.29 176.325 1058.69 177.252C1056.14 178.121 1053.99 179.425 1052.25 181.163C1050.57 182.901 1049.3 185.016 1048.43 187.508C1047.62 189.999 1047.16 192.839 1047.04 196.025L1042 194.461C1042 188.377 1042.61 182.785 1043.82 177.687C1045.04 172.53 1046.81 168.039 1049.13 164.215C1051.5 160.391 1054.4 157.436 1057.82 155.35C1061.24 153.264 1065.15 152.221 1069.55 152.221C1070.94 152.221 1072.36 152.337 1073.81 152.568C1075.26 152.742 1076.45 153.003 1077.37 153.351ZM1082.59 201.936V200.11C1082.59 193.215 1083.57 186.87 1085.54 181.076C1087.51 175.224 1090.38 170.154 1094.15 165.866C1097.91 161.578 1102.55 158.247 1108.05 155.871C1113.56 153.438 1119.87 152.221 1127 152.221C1134.13 152.221 1140.47 153.438 1146.04 155.871C1151.6 158.247 1156.26 161.578 1160.03 165.866C1163.85 170.154 1166.75 175.224 1168.72 181.076C1170.69 186.87 1171.67 193.215 1171.67 200.11V201.936C1171.67 208.773 1170.69 215.118 1168.72 220.97C1166.75 226.764 1163.85 231.834 1160.03 236.18C1156.26 240.467 1151.63 243.799 1146.12 246.175C1140.62 248.55 1134.3 249.738 1127.17 249.738C1120.05 249.738 1113.7 248.55 1108.14 246.175C1102.64 243.799 1097.97 240.467 1094.15 236.18C1090.38 231.834 1087.51 226.764 1085.54 220.97C1083.57 215.118 1082.59 208.773 1082.59 201.936ZM1107.62 200.11V201.936C1107.62 205.876 1107.97 209.555 1108.66 212.974C1109.36 216.392 1110.46 219.405 1111.96 222.013C1113.53 224.562 1115.56 226.561 1118.05 228.01C1120.54 229.458 1123.58 230.183 1127.17 230.183C1130.65 230.183 1133.64 229.458 1136.13 228.01C1138.62 226.561 1140.62 224.562 1142.12 222.013C1143.63 219.405 1144.73 216.392 1145.43 212.974C1146.18 209.555 1146.56 205.876 1146.56 201.936V200.11C1146.56 196.286 1146.18 192.694 1145.43 189.333C1144.73 185.914 1143.6 182.901 1142.04 180.294C1140.53 177.629 1138.53 175.543 1136.04 174.036C1133.55 172.53 1130.54 171.776 1127 171.776C1123.47 171.776 1120.45 172.53 1117.96 174.036C1115.53 175.543 1113.53 177.629 1111.96 180.294C1110.46 182.901 1109.36 185.914 1108.66 189.333C1107.97 192.694 1107.62 196.286 1107.62 200.11ZM1212.09 172.037V284.156H1187.06V153.959H1210.26L1212.09 172.037ZM1271.63 199.937V201.762C1271.63 208.599 1270.81 214.944 1269.19 220.796C1267.63 226.648 1265.31 231.747 1262.24 236.093C1259.17 240.381 1255.34 243.741 1250.77 246.175C1246.25 248.55 1241.03 249.738 1235.12 249.738C1229.39 249.738 1224.4 248.579 1220.17 246.262C1215.94 243.944 1212.38 240.699 1209.48 236.527C1206.64 232.298 1204.35 227.401 1202.62 221.839C1200.88 216.276 1199.55 210.308 1198.62 203.935V199.154C1199.55 192.317 1200.88 186.059 1202.62 180.381C1204.35 174.645 1206.64 169.69 1209.48 165.519C1212.38 161.289 1215.91 158.015 1220.09 155.697C1224.32 153.38 1229.27 152.221 1234.95 152.221C1240.92 152.221 1246.16 153.351 1250.68 155.61C1255.26 157.87 1259.08 161.115 1262.15 165.345C1265.28 169.575 1267.63 174.616 1269.19 180.468C1270.81 186.32 1271.63 192.81 1271.63 199.937ZM1246.51 201.762V199.937C1246.51 195.938 1246.16 192.259 1245.46 188.898C1244.83 185.48 1243.78 182.496 1242.34 179.946C1240.95 177.397 1239.09 175.427 1236.77 174.036C1234.51 172.588 1231.76 171.863 1228.52 171.863C1225.1 171.863 1222.17 172.414 1219.74 173.515C1217.36 174.616 1215.42 176.209 1213.92 178.295C1212.41 180.381 1211.28 182.872 1210.53 185.77C1209.77 188.667 1209.31 191.94 1209.13 195.591V207.672C1209.42 211.96 1210.24 215.813 1211.57 219.231C1212.9 222.592 1214.96 225.257 1217.74 227.228C1220.52 229.198 1224.17 230.183 1228.69 230.183C1231.99 230.183 1234.77 229.458 1237.03 228.01C1239.29 226.503 1241.12 224.446 1242.51 221.839C1243.96 219.231 1244.97 216.218 1245.55 212.8C1246.19 209.381 1246.51 205.702 1246.51 201.762ZM1312.21 172.037V284.156H1287.18V153.959H1310.39L1312.21 172.037ZM1371.75 199.937V201.762C1371.75 208.599 1370.94 214.944 1369.32 220.796C1367.75 226.648 1365.44 231.747 1362.36 236.093C1359.29 240.381 1355.47 243.741 1350.89 246.175C1346.37 248.55 1341.16 249.738 1335.25 249.738C1329.51 249.738 1324.53 248.579 1320.3 246.262C1316.07 243.944 1312.5 240.699 1309.61 236.527C1306.77 232.298 1304.48 227.401 1302.74 221.839C1301 216.276 1299.67 210.308 1298.74 203.935V199.154C1299.67 192.317 1301 186.059 1302.74 180.381C1304.48 174.645 1306.77 169.69 1309.61 165.519C1312.5 161.289 1316.04 158.015 1320.21 155.697C1324.44 153.38 1329.39 152.221 1335.07 152.221C1341.04 152.221 1346.29 153.351 1350.8 155.61C1355.38 157.87 1359.21 161.115 1362.28 165.345C1365.41 169.575 1367.75 174.616 1369.32 180.468C1370.94 186.32 1371.75 192.81 1371.75 199.937ZM1346.63 201.762V199.937C1346.63 195.938 1346.29 192.259 1345.59 188.898C1344.95 185.48 1343.91 182.496 1342.46 179.946C1341.07 177.397 1339.22 175.427 1336.9 174.036C1334.64 172.588 1331.89 171.863 1328.64 171.863C1325.22 171.863 1322.3 172.414 1319.86 173.515C1317.49 174.616 1315.55 176.209 1314.04 178.295C1312.53 180.381 1311.4 182.872 1310.65 185.77C1309.9 188.667 1309.43 191.94 1309.26 195.591V207.672C1309.55 211.96 1310.36 215.813 1311.69 219.231C1313.03 222.592 1315.08 225.257 1317.86 227.228C1320.65 229.198 1324.3 230.183 1328.82 230.183C1332.12 230.183 1334.9 229.458 1337.16 228.01C1339.42 226.503 1341.24 224.446 1342.63 221.839C1344.08 219.231 1345.1 216.218 1345.68 212.8C1346.31 209.381 1346.63 205.702 1346.63 201.762ZM1430.59 249.738C1423.29 249.738 1416.74 248.579 1410.95 246.262C1405.15 243.886 1400.23 240.612 1396.17 236.44C1392.18 232.269 1389.1 227.43 1386.96 221.926C1384.82 216.363 1383.75 210.453 1383.75 204.195V200.719C1383.75 193.592 1384.76 187.073 1386.79 181.163C1388.82 175.253 1391.71 170.125 1395.48 165.779C1399.3 161.434 1403.94 158.102 1409.38 155.784C1414.83 153.409 1420.97 152.221 1427.81 152.221C1434.47 152.221 1440.38 153.322 1445.54 155.523C1450.7 157.725 1455.01 160.854 1458.49 164.91C1462.03 168.966 1464.69 173.833 1466.49 179.512C1468.28 185.132 1469.18 191.39 1469.18 198.285V208.715H1394.44V192.027H1444.58V190.115C1444.58 186.639 1443.95 183.539 1442.67 180.815C1441.46 178.034 1439.6 175.832 1437.11 174.21C1434.62 172.588 1431.43 171.776 1427.55 171.776C1424.25 171.776 1421.41 172.501 1419.03 173.949C1416.66 175.398 1414.72 177.426 1413.21 180.033C1411.76 182.641 1410.66 185.712 1409.91 189.246C1409.21 192.723 1408.86 196.547 1408.86 200.719V204.195C1408.86 207.962 1409.38 211.438 1410.43 214.625C1411.53 217.812 1413.06 220.564 1415.03 222.882C1417.06 225.2 1419.5 226.996 1422.33 228.271C1425.23 229.545 1428.51 230.183 1432.16 230.183C1436.68 230.183 1440.88 229.313 1444.76 227.575C1448.7 225.779 1452.09 223.085 1454.93 219.492L1467.1 232.703C1465.13 235.542 1462.43 238.266 1459.01 240.873C1455.65 243.48 1451.6 245.624 1446.84 247.305C1442.09 248.927 1436.68 249.738 1430.59 249.738ZM1508.47 174.471V248H1483.44V153.959H1506.99L1508.47 174.471ZM1536.8 153.351L1536.37 176.557C1535.15 176.383 1533.67 176.238 1531.93 176.122C1530.25 175.948 1528.72 175.861 1527.33 175.861C1523.79 175.861 1520.72 176.325 1518.11 177.252C1515.56 178.121 1513.42 179.425 1511.68 181.163C1510 182.901 1508.73 185.016 1507.86 187.508C1507.05 189.999 1506.58 192.839 1506.47 196.025L1501.43 194.461C1501.43 188.377 1502.04 182.785 1503.25 177.687C1504.47 172.53 1506.24 168.039 1508.55 164.215C1510.93 160.391 1513.83 157.436 1517.25 155.35C1520.66 153.264 1524.57 152.221 1528.98 152.221C1530.37 152.221 1531.79 152.337 1533.24 152.568C1534.69 152.742 1535.87 153.003 1536.8 153.351Z"/>
</mask>
<path d="M499.134 216.016C499.134 213.061 498.67 210.453 497.743 208.193C496.874 205.876 495.31 203.79 493.05 201.936C490.848 200.081 487.777 198.314 483.837 196.634C479.955 194.953 475.03 193.244 469.062 191.506C462.804 189.652 457.154 187.595 452.113 185.335C447.072 183.017 442.756 180.381 439.163 177.426C435.571 174.471 432.818 171.081 430.906 167.257C428.994 163.433 428.038 159.058 428.038 154.133C428.038 149.208 429.052 144.659 431.08 140.487C433.108 136.315 436.005 132.694 439.771 129.623C443.596 126.494 448.144 124.061 453.417 122.322C458.69 120.584 464.571 119.715 471.061 119.715C480.563 119.715 488.617 121.54 495.223 125.19C501.886 128.783 506.956 133.505 510.433 139.357C513.909 145.152 515.647 151.352 515.647 157.957H498.96C498.96 153.206 497.946 149.005 495.918 145.354C493.89 141.646 490.819 138.749 486.705 136.663C482.591 134.519 477.376 133.447 471.061 133.447C465.092 133.447 460.167 134.345 456.285 136.142C452.403 137.938 449.506 140.371 447.594 143.442C445.74 146.513 444.812 150.019 444.812 153.959C444.812 156.624 445.363 159.058 446.464 161.26C447.623 163.404 449.39 165.403 451.766 167.257C454.199 169.111 457.27 170.82 460.979 172.385C464.745 173.949 469.235 175.456 474.45 176.904C481.635 178.932 487.835 181.192 493.05 183.684C498.265 186.175 502.552 188.985 505.913 192.114C509.332 195.185 511.852 198.691 513.475 202.631C515.155 206.513 515.995 210.917 515.995 215.842C515.995 220.999 514.952 225.663 512.866 229.835C510.78 234.007 507.796 237.57 503.914 240.525C500.032 243.48 495.368 245.769 489.921 247.392C484.532 248.956 478.506 249.738 471.843 249.738C465.991 249.738 460.225 248.927 454.547 247.305C448.926 245.682 443.799 243.249 439.163 240.004C434.586 236.759 430.906 232.761 428.125 228.01C425.402 223.201 424.04 217.638 424.04 211.322H440.728C440.728 215.668 441.568 219.405 443.248 222.534C444.928 225.605 447.217 228.155 450.114 230.183C453.069 232.211 456.401 233.717 460.109 234.702C463.876 235.629 467.787 236.093 471.843 236.093C477.695 236.093 482.649 235.282 486.705 233.659C490.761 232.037 493.832 229.719 495.918 226.706C498.062 223.693 499.134 220.13 499.134 216.016ZM550.935 172.646V248H534.769V153.959H550.065L550.935 172.646ZM547.632 197.416L540.157 197.155C540.215 190.724 541.055 184.785 542.678 179.338C544.3 173.833 546.705 169.053 549.892 164.997C553.078 160.941 557.048 157.812 561.799 155.61C566.55 153.351 572.055 152.221 578.312 152.221C582.716 152.221 586.772 152.858 590.48 154.133C594.189 155.35 597.405 157.291 600.128 159.956C602.851 162.621 604.966 166.04 606.473 170.212C607.979 174.384 608.732 179.425 608.732 185.335V248H592.653V186.117C592.653 181.192 591.813 177.252 590.133 174.297C588.51 171.342 586.193 169.198 583.18 167.865C580.167 166.475 576.632 165.779 572.576 165.779C567.825 165.779 563.856 166.619 560.669 168.3C557.482 169.98 554.933 172.298 553.021 175.253C551.108 178.208 549.718 181.598 548.849 185.422C548.037 189.188 547.632 193.186 547.632 197.416ZM608.559 188.551L597.781 191.854C597.839 186.697 598.679 181.743 600.302 176.991C601.982 172.24 604.387 168.01 607.516 164.302C610.702 160.593 614.614 157.667 619.249 155.523C623.884 153.322 629.186 152.221 635.154 152.221C640.195 152.221 644.657 152.887 648.539 154.22C652.479 155.552 655.782 157.609 658.447 160.391C661.171 163.114 663.228 166.619 664.618 170.907C666.009 175.195 666.704 180.294 666.704 186.204V248H650.538V186.03C650.538 180.757 649.698 176.673 648.018 173.775C646.395 170.82 644.077 168.763 641.064 167.604C638.109 166.388 634.575 165.779 630.461 165.779C626.926 165.779 623.798 166.388 621.074 167.604C618.351 168.821 616.062 170.502 614.208 172.646C612.354 174.731 610.934 177.136 609.949 179.859C609.022 182.583 608.559 185.48 608.559 188.551ZM746.491 231.921V183.51C746.491 179.801 745.738 176.586 744.231 173.862C742.783 171.081 740.581 168.937 737.626 167.431C734.671 165.924 731.021 165.171 726.675 165.171C722.619 165.171 719.055 165.866 715.984 167.257C712.971 168.647 710.596 170.473 708.857 172.732C707.177 174.992 706.337 177.426 706.337 180.033H690.258C690.258 176.673 691.127 173.341 692.865 170.038C694.604 166.735 697.095 163.751 700.34 161.086C703.643 158.363 707.583 156.219 712.16 154.654C716.796 153.032 721.952 152.221 727.631 152.221C734.468 152.221 740.494 153.38 745.709 155.697C750.982 158.015 755.096 161.521 758.051 166.214C761.064 170.849 762.57 176.673 762.57 183.684V227.488C762.57 230.617 762.831 233.949 763.353 237.483C763.932 241.018 764.772 244.06 765.873 246.609V248H749.099C748.287 246.146 747.65 243.683 747.187 240.612C746.723 237.483 746.491 234.586 746.491 231.921ZM749.272 190.984L749.446 202.283H733.193C728.616 202.283 724.531 202.66 720.938 203.413C717.346 204.108 714.333 205.18 711.899 206.629C709.466 208.077 707.612 209.903 706.337 212.104C705.062 214.248 704.425 216.769 704.425 219.666C704.425 222.621 705.091 225.315 706.424 227.749C707.757 230.183 709.756 232.124 712.421 233.572C715.144 234.963 718.476 235.658 722.416 235.658C727.341 235.658 731.687 234.615 735.453 232.529C739.219 230.443 742.203 227.894 744.405 224.881C746.665 221.868 747.882 218.942 748.056 216.103L754.922 223.838C754.516 226.271 753.415 228.966 751.619 231.921C749.823 234.876 747.418 237.715 744.405 240.438C741.45 243.104 737.916 245.335 733.802 247.131C729.746 248.869 725.168 249.738 720.069 249.738C713.696 249.738 708.104 248.493 703.295 246.001C698.544 243.509 694.835 240.178 692.17 236.006C689.562 231.776 688.259 227.054 688.259 221.839C688.259 216.798 689.244 212.365 691.214 208.541C693.184 204.659 696.023 201.443 699.731 198.894C703.44 196.286 707.901 194.316 713.116 192.983C718.331 191.651 724.154 190.984 730.586 190.984H749.272ZM803.941 168.734V248H787.862V153.959H803.507L803.941 168.734ZM833.318 153.438L833.231 168.387C831.899 168.097 830.624 167.923 829.407 167.865C828.248 167.749 826.916 167.691 825.409 167.691C821.701 167.691 818.427 168.271 815.588 169.43C812.749 170.589 810.344 172.211 808.374 174.297C806.404 176.383 804.84 178.874 803.681 181.771C802.58 184.611 801.855 187.74 801.508 191.158L796.988 193.766C796.988 188.087 797.539 182.757 798.64 177.773C799.799 172.79 801.566 168.387 803.941 164.562C806.317 160.68 809.33 157.667 812.98 155.523C816.689 153.322 821.092 152.221 826.191 152.221C827.35 152.221 828.683 152.366 830.189 152.655C831.696 152.887 832.739 153.148 833.318 153.438ZM891.898 153.959V166.301H841.054V153.959H891.898ZM858.263 131.101H874.342V224.707C874.342 227.894 874.834 230.299 875.819 231.921C876.804 233.543 878.079 234.615 879.644 235.137C881.208 235.658 882.888 235.919 884.685 235.919C886.017 235.919 887.408 235.803 888.856 235.571C890.363 235.282 891.493 235.05 892.246 234.876L892.333 248C891.058 248.406 889.378 248.782 887.292 249.13C885.264 249.535 882.801 249.738 879.904 249.738C875.964 249.738 872.343 248.956 869.04 247.392C865.737 245.827 863.101 243.22 861.131 239.569C859.219 235.861 858.263 230.878 858.263 224.62V131.101ZM948.653 248H921.102L921.275 227.662H948.653C955.491 227.662 961.256 226.127 965.949 223.056C970.643 219.927 974.177 215.378 976.553 209.41C978.986 203.442 980.203 196.228 980.203 187.769V181.598C980.203 175.108 979.508 169.401 978.117 164.476C976.785 159.55 974.785 155.408 972.12 152.047C969.455 148.686 966.181 146.166 962.299 144.485C958.417 142.747 953.955 141.878 948.914 141.878H920.58V121.453H948.914C957.374 121.453 965.109 122.902 972.12 125.799C979.189 128.638 985.302 132.723 990.459 138.054C995.616 143.384 999.585 149.758 1002.37 157.175C1005.21 164.534 1006.62 172.732 1006.62 181.771V187.769C1006.62 196.75 1005.21 204.949 1002.37 212.365C999.585 219.782 995.616 226.156 990.459 231.486C985.36 236.759 979.247 240.844 972.12 243.741C965.051 246.58 957.229 248 948.653 248ZM935.877 121.453V248H909.803V121.453H935.877ZM1049.04 174.471V248H1024.01V153.959H1047.56L1049.04 174.471ZM1077.37 153.351L1076.94 176.557C1075.72 176.383 1074.24 176.238 1072.51 176.122C1070.83 175.948 1069.29 175.861 1067.9 175.861C1064.36 175.861 1061.29 176.325 1058.69 177.252C1056.14 178.121 1053.99 179.425 1052.25 181.163C1050.57 182.901 1049.3 185.016 1048.43 187.508C1047.62 189.999 1047.16 192.839 1047.04 196.025L1042 194.461C1042 188.377 1042.61 182.785 1043.82 177.687C1045.04 172.53 1046.81 168.039 1049.13 164.215C1051.5 160.391 1054.4 157.436 1057.82 155.35C1061.24 153.264 1065.15 152.221 1069.55 152.221C1070.94 152.221 1072.36 152.337 1073.81 152.568C1075.26 152.742 1076.45 153.003 1077.37 153.351ZM1082.59 201.936V200.11C1082.59 193.215 1083.57 186.87 1085.54 181.076C1087.51 175.224 1090.38 170.154 1094.15 165.866C1097.91 161.578 1102.55 158.247 1108.05 155.871C1113.56 153.438 1119.87 152.221 1127 152.221C1134.13 152.221 1140.47 153.438 1146.04 155.871C1151.6 158.247 1156.26 161.578 1160.03 165.866C1163.85 170.154 1166.75 175.224 1168.72 181.076C1170.69 186.87 1171.67 193.215 1171.67 200.11V201.936C1171.67 208.773 1170.69 215.118 1168.72 220.97C1166.75 226.764 1163.85 231.834 1160.03 236.18C1156.26 240.467 1151.63 243.799 1146.12 246.175C1140.62 248.55 1134.3 249.738 1127.17 249.738C1120.05 249.738 1113.7 248.55 1108.14 246.175C1102.64 243.799 1097.97 240.467 1094.15 236.18C1090.38 231.834 1087.51 226.764 1085.54 220.97C1083.57 215.118 1082.59 208.773 1082.59 201.936ZM1107.62 200.11V201.936C1107.62 205.876 1107.97 209.555 1108.66 212.974C1109.36 216.392 1110.46 219.405 1111.96 222.013C1113.53 224.562 1115.56 226.561 1118.05 228.01C1120.54 229.458 1123.58 230.183 1127.17 230.183C1130.65 230.183 1133.64 229.458 1136.13 228.01C1138.62 226.561 1140.62 224.562 1142.12 222.013C1143.63 219.405 1144.73 216.392 1145.43 212.974C1146.18 209.555 1146.56 205.876 1146.56 201.936V200.11C1146.56 196.286 1146.18 192.694 1145.43 189.333C1144.73 185.914 1143.6 182.901 1142.04 180.294C1140.53 177.629 1138.53 175.543 1136.04 174.036C1133.55 172.53 1130.54 171.776 1127 171.776C1123.47 171.776 1120.45 172.53 1117.96 174.036C1115.53 175.543 1113.53 177.629 1111.96 180.294C1110.46 182.901 1109.36 185.914 1108.66 189.333C1107.97 192.694 1107.62 196.286 1107.62 200.11ZM1212.09 172.037V284.156H1187.06V153.959H1210.26L1212.09 172.037ZM1271.63 199.937V201.762C1271.63 208.599 1270.81 214.944 1269.19 220.796C1267.63 226.648 1265.31 231.747 1262.24 236.093C1259.17 240.381 1255.34 243.741 1250.77 246.175C1246.25 248.55 1241.03 249.738 1235.12 249.738C1229.39 249.738 1224.4 248.579 1220.17 246.262C1215.94 243.944 1212.38 240.699 1209.48 236.527C1206.64 232.298 1204.35 227.401 1202.62 221.839C1200.88 216.276 1199.55 210.308 1198.62 203.935V199.154C1199.55 192.317 1200.88 186.059 1202.62 180.381C1204.35 174.645 1206.64 169.69 1209.48 165.519C1212.38 161.289 1215.91 158.015 1220.09 155.697C1224.32 153.38 1229.27 152.221 1234.95 152.221C1240.92 152.221 1246.16 153.351 1250.68 155.61C1255.26 157.87 1259.08 161.115 1262.15 165.345C1265.28 169.575 1267.63 174.616 1269.19 180.468C1270.81 186.32 1271.63 192.81 1271.63 199.937ZM1246.51 201.762V199.937C1246.51 195.938 1246.16 192.259 1245.46 188.898C1244.83 185.48 1243.78 182.496 1242.34 179.946C1240.95 177.397 1239.09 175.427 1236.77 174.036C1234.51 172.588 1231.76 171.863 1228.52 171.863C1225.1 171.863 1222.17 172.414 1219.74 173.515C1217.36 174.616 1215.42 176.209 1213.92 178.295C1212.41 180.381 1211.28 182.872 1210.53 185.77C1209.77 188.667 1209.31 191.94 1209.13 195.591V207.672C1209.42 211.96 1210.24 215.813 1211.57 219.231C1212.9 222.592 1214.96 225.257 1217.74 227.228C1220.52 229.198 1224.17 230.183 1228.69 230.183C1231.99 230.183 1234.77 229.458 1237.03 228.01C1239.29 226.503 1241.12 224.446 1242.51 221.839C1243.96 219.231 1244.97 216.218 1245.55 212.8C1246.19 209.381 1246.51 205.702 1246.51 201.762ZM1312.21 172.037V284.156H1287.18V153.959H1310.39L1312.21 172.037ZM1371.75 199.937V201.762C1371.75 208.599 1370.94 214.944 1369.32 220.796C1367.75 226.648 1365.44 231.747 1362.36 236.093C1359.29 240.381 1355.47 243.741 1350.89 246.175C1346.37 248.55 1341.16 249.738 1335.25 249.738C1329.51 249.738 1324.53 248.579 1320.3 246.262C1316.07 243.944 1312.5 240.699 1309.61 236.527C1306.77 232.298 1304.48 227.401 1302.74 221.839C1301 216.276 1299.67 210.308 1298.74 203.935V199.154C1299.67 192.317 1301 186.059 1302.74 180.381C1304.48 174.645 1306.77 169.69 1309.61 165.519C1312.5 161.289 1316.04 158.015 1320.21 155.697C1324.44 153.38 1329.39 152.221 1335.07 152.221C1341.04 152.221 1346.29 153.351 1350.8 155.61C1355.38 157.87 1359.21 161.115 1362.28 165.345C1365.41 169.575 1367.75 174.616 1369.32 180.468C1370.94 186.32 1371.75 192.81 1371.75 199.937ZM1346.63 201.762V199.937C1346.63 195.938 1346.29 192.259 1345.59 188.898C1344.95 185.48 1343.91 182.496 1342.46 179.946C1341.07 177.397 1339.22 175.427 1336.9 174.036C1334.64 172.588 1331.89 171.863 1328.64 171.863C1325.22 171.863 1322.3 172.414 1319.86 173.515C1317.49 174.616 1315.55 176.209 1314.04 178.295C1312.53 180.381 1311.4 182.872 1310.65 185.77C1309.9 188.667 1309.43 191.94 1309.26 195.591V207.672C1309.55 211.96 1310.36 215.813 1311.69 219.231C1313.03 222.592 1315.08 225.257 1317.86 227.228C1320.65 229.198 1324.3 230.183 1328.82 230.183C1332.12 230.183 1334.9 229.458 1337.16 228.01C1339.42 226.503 1341.24 224.446 1342.63 221.839C1344.08 219.231 1345.1 216.218 1345.68 212.8C1346.31 209.381 1346.63 205.702 1346.63 201.762ZM1430.59 249.738C1423.29 249.738 1416.74 248.579 1410.95 246.262C1405.15 243.886 1400.23 240.612 1396.17 236.44C1392.18 232.269 1389.1 227.43 1386.96 221.926C1384.82 216.363 1383.75 210.453 1383.75 204.195V200.719C1383.75 193.592 1384.76 187.073 1386.79 181.163C1388.82 175.253 1391.71 170.125 1395.48 165.779C1399.3 161.434 1403.94 158.102 1409.38 155.784C1414.83 153.409 1420.97 152.221 1427.81 152.221C1434.47 152.221 1440.38 153.322 1445.54 155.523C1450.7 157.725 1455.01 160.854 1458.49 164.91C1462.03 168.966 1464.69 173.833 1466.49 179.512C1468.28 185.132 1469.18 191.39 1469.18 198.285V208.715H1394.44V192.027H1444.58V190.115C1444.58 186.639 1443.95 183.539 1442.67 180.815C1441.46 178.034 1439.6 175.832 1437.11 174.21C1434.62 172.588 1431.43 171.776 1427.55 171.776C1424.25 171.776 1421.41 172.501 1419.03 173.949C1416.66 175.398 1414.72 177.426 1413.21 180.033C1411.76 182.641 1410.66 185.712 1409.91 189.246C1409.21 192.723 1408.86 196.547 1408.86 200.719V204.195C1408.86 207.962 1409.38 211.438 1410.43 214.625C1411.53 217.812 1413.06 220.564 1415.03 222.882C1417.06 225.2 1419.5 226.996 1422.33 228.271C1425.23 229.545 1428.51 230.183 1432.16 230.183C1436.68 230.183 1440.88 229.313 1444.76 227.575C1448.7 225.779 1452.09 223.085 1454.93 219.492L1467.1 232.703C1465.13 235.542 1462.43 238.266 1459.01 240.873C1455.65 243.48 1451.6 245.624 1446.84 247.305C1442.09 248.927 1436.68 249.738 1430.59 249.738ZM1508.47 174.471V248H1483.44V153.959H1506.99L1508.47 174.471ZM1536.8 153.351L1536.37 176.557C1535.15 176.383 1533.67 176.238 1531.93 176.122C1530.25 175.948 1528.72 175.861 1527.33 175.861C1523.79 175.861 1520.72 176.325 1518.11 177.252C1515.56 178.121 1513.42 179.425 1511.68 181.163C1510 182.901 1508.73 185.016 1507.86 187.508C1507.05 189.999 1506.58 192.839 1506.47 196.025L1501.43 194.461C1501.43 188.377 1502.04 182.785 1503.25 177.687C1504.47 172.53 1506.24 168.039 1508.55 164.215C1510.93 160.391 1513.83 157.436 1517.25 155.35C1520.66 153.264 1524.57 152.221 1528.98 152.221C1530.37 152.221 1531.79 152.337 1533.24 152.568C1534.69 152.742 1535.87 153.003 1536.8 153.351Z" fill="white"/>
<path d="M497.743 208.193L496.807 208.544L496.812 208.559L496.818 208.573L497.743 208.193ZM493.05 201.936L492.406 202.701L492.415 202.709L493.05 201.936ZM483.837 196.634L483.44 197.552L483.445 197.554L483.837 196.634ZM469.062 191.506L468.777 192.465L468.782 192.466L469.062 191.506ZM452.113 185.335L451.696 186.244L451.704 186.247L452.113 185.335ZM439.771 129.623L440.403 130.398L440.405 130.397L439.771 129.623ZM495.223 125.19L494.739 126.066L494.748 126.071L495.223 125.19ZM510.433 139.357L509.573 139.868L509.575 139.872L510.433 139.357ZM515.647 157.957V158.957H516.647V157.957H515.647ZM498.96 157.957H497.96V158.957H498.96V157.957ZM495.918 145.354L495.041 145.834L495.044 145.84L495.918 145.354ZM486.705 136.663L486.243 137.55L486.253 137.555L486.705 136.663ZM447.594 143.442L446.745 142.914L446.738 142.926L447.594 143.442ZM446.464 161.26L445.569 161.707L445.577 161.721L445.584 161.735L446.464 161.26ZM451.766 167.257L451.15 168.045L451.16 168.052L451.766 167.257ZM460.979 172.385L460.59 173.306L460.595 173.308L460.979 172.385ZM474.45 176.904L474.722 175.942L474.718 175.941L474.45 176.904ZM505.913 192.114L505.232 192.846L505.238 192.852L505.245 192.858L505.913 192.114ZM513.475 202.631L512.55 203.012L512.553 203.02L512.557 203.028L513.475 202.631ZM503.914 240.525L503.308 239.73L503.914 240.525ZM489.921 247.392L490.2 248.352L490.206 248.35L489.921 247.392ZM454.547 247.305L454.27 248.265L454.272 248.266L454.547 247.305ZM439.163 240.004L438.585 240.82L438.59 240.823L439.163 240.004ZM428.125 228.01L427.255 228.503L427.258 228.509L427.262 228.515L428.125 228.01ZM424.04 211.322V210.322H423.04V211.322H424.04ZM440.728 211.322H441.728V210.322H440.728V211.322ZM443.248 222.534L442.367 223.007L442.371 223.014L443.248 222.534ZM450.114 230.183L449.541 231.002L449.548 231.007L450.114 230.183ZM460.109 234.702L459.853 235.669L459.861 235.671L459.87 235.673L460.109 234.702ZM495.918 226.706L495.103 226.126L495.096 226.137L495.918 226.706ZM500.134 216.016C500.134 212.957 499.654 210.216 498.668 207.814L496.818 208.573C497.686 210.69 498.134 213.164 498.134 216.016H500.134ZM498.679 207.842C497.738 205.332 496.055 203.108 493.684 201.162L492.415 202.709C494.564 204.471 496.01 206.419 496.807 208.544L498.679 207.842ZM493.694 201.171C491.389 199.23 488.221 197.416 484.229 195.714L483.445 197.554C487.333 199.212 490.307 200.933 492.406 202.7L493.694 201.171ZM484.234 195.716C480.3 194.013 475.333 192.291 469.341 190.546L468.782 192.466C474.727 194.197 479.609 195.893 483.44 197.552L484.234 195.716ZM469.346 190.547C463.123 188.703 457.516 186.661 452.522 184.422L451.704 186.247C456.792 188.528 462.484 190.6 468.777 192.465L469.346 190.547ZM452.531 184.426C447.554 182.138 443.313 179.545 439.798 176.653L438.528 178.198C442.198 181.217 446.591 183.897 451.696 186.244L452.531 184.426ZM439.798 176.653C436.304 173.78 433.645 170.498 431.801 166.81L430.012 167.704C431.992 171.664 434.837 175.162 438.528 178.198L439.798 176.653ZM431.801 166.81C429.968 163.144 429.038 158.926 429.038 154.133H427.038C427.038 159.19 428.02 163.721 430.012 167.704L431.801 166.81ZM429.038 154.133C429.038 149.35 430.022 144.952 431.979 140.924L430.181 140.05C428.082 144.367 427.038 149.066 427.038 154.133H429.038ZM431.979 140.924C433.941 136.89 436.744 133.382 440.403 130.398L439.14 128.848C435.266 132.006 432.275 135.741 430.181 140.05L431.979 140.924ZM440.405 130.397C444.123 127.355 448.56 124.977 453.73 123.272L453.104 121.373C447.729 123.145 443.069 125.633 439.138 128.849L440.405 130.397ZM453.73 123.272C458.886 121.572 464.66 120.715 471.061 120.715V118.715C464.482 118.715 458.493 119.596 453.104 121.373L453.73 123.272ZM471.061 120.715C480.437 120.715 488.315 122.516 494.739 126.066L495.706 124.315C488.919 120.564 480.689 118.715 471.061 118.715V120.715ZM494.748 126.071C501.27 129.587 506.199 134.189 509.573 139.868L511.292 138.847C507.713 132.822 502.502 127.979 495.697 124.31L494.748 126.071ZM509.575 139.872C512.961 145.515 514.647 151.537 514.647 157.957H516.647C516.647 151.166 514.858 144.789 511.29 138.843L509.575 139.872ZM515.647 156.957H498.96V158.957H515.647V156.957ZM499.96 157.957C499.96 153.06 498.913 148.687 496.792 144.869L495.044 145.84C496.978 149.323 497.96 153.352 497.96 157.957H499.96ZM496.795 144.875C494.662 140.973 491.434 137.94 487.157 135.771L486.253 137.555C490.204 139.558 493.118 142.319 495.041 145.834L496.795 144.875ZM487.167 135.776C482.868 133.536 477.482 132.447 471.061 132.447V134.447C477.271 134.447 482.314 135.502 486.243 137.55L487.167 135.776ZM471.061 132.447C465.001 132.447 459.92 133.358 455.865 135.234L456.705 137.049C460.414 135.333 465.184 134.447 471.061 134.447V132.447ZM455.865 135.234C451.839 137.097 448.778 139.649 446.745 142.914L448.443 143.971C450.234 141.094 452.967 138.779 456.705 137.049L455.865 135.234ZM446.738 142.926C444.78 146.168 443.812 149.855 443.812 153.959H445.812C445.812 150.183 446.699 146.859 448.45 143.959L446.738 142.926ZM443.812 153.959C443.812 156.766 444.393 159.355 445.569 161.707L447.358 160.813C446.332 158.761 445.812 156.482 445.812 153.959H443.812ZM445.584 161.735C446.822 164.026 448.691 166.126 451.15 168.045L452.381 166.469C450.089 164.68 448.423 162.782 447.344 160.784L445.584 161.735ZM451.16 168.052C453.677 169.97 456.827 171.719 460.59 173.306L461.367 171.463C457.714 169.922 454.721 168.252 452.372 166.461L451.16 168.052ZM460.595 173.308C464.409 174.893 468.94 176.412 474.183 177.868L474.718 175.941C469.531 174.5 465.081 173.006 461.362 171.461L460.595 173.308ZM474.179 177.867C481.324 179.883 487.468 182.125 492.619 184.586L493.481 182.781C488.202 180.259 481.947 177.981 474.722 175.942L474.179 177.867ZM492.619 184.586C497.765 187.044 501.962 189.802 505.232 192.846L506.595 191.382C503.143 188.169 498.765 185.306 493.481 182.781L492.619 184.586ZM505.245 192.858C508.561 195.837 510.989 199.221 512.55 203.012L514.399 202.25C512.715 198.161 510.103 194.534 506.581 191.37L505.245 192.858ZM512.557 203.028C514.175 206.766 514.995 211.031 514.995 215.842H516.995C516.995 210.802 516.135 206.26 514.392 202.234L512.557 203.028ZM514.995 215.842C514.995 220.86 513.981 225.369 511.972 229.388L513.761 230.282C515.923 225.957 516.995 221.137 516.995 215.842H514.995ZM511.972 229.388C509.957 233.417 507.075 236.863 503.308 239.73L504.52 241.321C508.518 238.278 511.603 234.597 513.761 230.282L511.972 229.388ZM503.308 239.73C499.537 242.601 494.985 244.84 489.635 246.433L490.206 248.35C495.75 246.699 500.527 244.36 504.52 241.321L503.308 239.73ZM489.642 246.431C484.359 247.965 478.429 248.738 471.843 248.738V250.738C478.583 250.738 484.705 249.947 490.2 248.352L489.642 246.431ZM471.843 248.738C466.084 248.738 460.411 247.94 454.822 246.343L454.272 248.266C460.039 249.914 465.897 250.738 471.843 250.738V248.738ZM454.824 246.344C449.306 244.751 444.279 242.364 439.737 239.185L438.59 240.823C443.318 244.133 448.547 246.614 454.27 248.265L454.824 246.344ZM439.741 239.188C435.278 236.024 431.696 232.131 428.988 227.505L427.262 228.515C430.116 233.391 433.894 237.494 438.585 240.82L439.741 239.188ZM428.995 227.517C426.368 222.878 425.04 217.49 425.04 211.322H423.04C423.04 217.786 424.435 223.523 427.255 228.503L428.995 227.517ZM424.04 212.322H440.728V210.322H424.04V212.322ZM439.728 211.322C439.728 215.797 440.593 219.704 442.367 223.007L444.129 222.061C442.542 219.107 441.728 215.539 441.728 211.322H439.728ZM442.371 223.014C444.126 226.222 446.519 228.887 449.541 231.002L450.688 229.363C447.915 227.423 445.731 224.989 444.125 222.054L442.371 223.014ZM449.548 231.007C452.604 233.104 456.042 234.656 459.853 235.669L460.366 233.736C456.76 232.778 453.535 231.317 450.68 229.358L449.548 231.007ZM459.87 235.673C463.718 236.62 467.71 237.093 471.843 237.093V235.093C467.864 235.093 464.033 234.638 460.348 233.731L459.87 235.673ZM471.843 237.093C477.782 237.093 482.87 236.27 487.076 234.588L486.334 232.731C482.428 234.293 477.608 235.093 471.843 235.093V237.093ZM487.076 234.588C491.279 232.907 494.522 230.479 496.74 227.275L495.096 226.137C493.142 228.96 490.243 231.167 486.334 232.731L487.076 234.588ZM496.733 227.286C499.011 224.085 500.134 220.313 500.134 216.016H498.134C498.134 219.946 497.113 223.301 495.103 226.126L496.733 227.286ZM550.935 172.646H551.935V172.622L551.933 172.599L550.935 172.646ZM550.935 248V249H551.935V248H550.935ZM534.769 248H533.769V249H534.769V248ZM534.769 153.959V152.959H533.769V153.959H534.769ZM550.065 153.959L551.064 153.913L551.02 152.959H550.065V153.959ZM547.632 197.416L547.597 198.415L548.632 198.452V197.416H547.632ZM540.157 197.155L539.157 197.146L539.148 198.121L540.122 198.155L540.157 197.155ZM542.678 179.338L543.636 179.623L543.637 179.621L542.678 179.338ZM561.799 155.61L562.219 156.518L562.228 156.513L561.799 155.61ZM590.48 154.133L590.155 155.079L590.169 155.083L590.48 154.133ZM600.128 159.956L599.428 160.671L600.128 159.956ZM608.732 248V249H609.732V248H608.732ZM592.653 248H591.653V249H592.653V248ZM590.133 174.297L589.256 174.778L589.26 174.785L589.264 174.791L590.133 174.297ZM583.18 167.865L582.761 168.773L582.768 168.777L582.775 168.78L583.18 167.865ZM548.849 185.422L547.873 185.2L547.871 185.211L548.849 185.422ZM608.559 188.551L608.852 189.507L609.559 189.29V188.551H608.559ZM597.781 191.854L596.781 191.842L596.766 193.211L598.074 192.81L597.781 191.854ZM600.302 176.991L599.359 176.658L599.355 176.668L600.302 176.991ZM607.516 164.302L606.757 163.65L606.751 163.657L607.516 164.302ZM619.249 155.523L619.669 156.431L619.678 156.427L619.249 155.523ZM648.539 154.22L648.214 155.166L648.219 155.167L648.539 154.22ZM658.447 160.391L657.725 161.083L657.733 161.09L657.74 161.098L658.447 160.391ZM666.704 248V249H667.704V248H666.704ZM650.538 248H649.538V249H650.538V248ZM648.018 173.775L647.141 174.257L647.147 174.267L647.153 174.277L648.018 173.775ZM641.064 167.604L640.684 168.529L640.695 168.534L640.705 168.538L641.064 167.604ZM614.208 172.646L614.955 173.31L614.964 173.3L614.208 172.646ZM609.949 179.859L609.009 179.519L609.006 179.528L609.003 179.537L609.949 179.859ZM549.935 172.646V248H551.935V172.646H549.935ZM550.935 247H534.769V249H550.935V247ZM535.769 248V153.959H533.769V248H535.769ZM534.769 154.959H550.065V152.959H534.769V154.959ZM549.067 154.005L549.936 172.692L551.933 172.599L551.064 153.913L549.067 154.005ZM547.667 196.417L540.192 196.156L540.122 198.155L547.597 198.415L547.667 196.417ZM541.157 197.164C541.214 190.814 542.044 184.969 543.636 179.623L541.719 179.052C540.067 184.6 539.216 190.633 539.157 197.146L541.157 197.164ZM543.637 179.621C545.228 174.224 547.578 169.561 550.678 165.615L549.105 164.379C545.832 168.546 543.373 173.443 541.719 179.055L543.637 179.621ZM550.678 165.615C553.766 161.685 557.609 158.654 562.219 156.518L561.378 154.703C556.486 156.97 552.391 160.197 549.105 164.379L550.678 165.615ZM562.228 156.513C566.822 154.328 572.175 153.221 578.312 153.221V151.221C571.934 151.221 566.278 152.373 561.369 154.707L562.228 156.513ZM578.312 153.221C582.619 153.221 586.564 153.844 590.155 155.078L590.806 153.187C586.981 151.872 582.813 151.221 578.312 151.221V153.221ZM590.169 155.083C593.735 156.253 596.817 158.115 599.428 160.671L600.827 159.241C597.992 156.466 594.642 154.446 590.792 153.183L590.169 155.083ZM599.428 160.671C602.028 163.215 604.068 166.498 605.532 170.552L607.413 169.872C605.864 165.582 603.675 162.028 600.827 159.241L599.428 160.671ZM605.532 170.552C606.989 174.585 607.732 179.504 607.732 185.335H609.732C609.732 179.345 608.97 174.183 607.413 169.872L605.532 170.552ZM607.732 185.335V248H609.732V185.335H607.732ZM608.732 247H592.653V249H608.732V247ZM593.653 248V186.117H591.653V248H593.653ZM593.653 186.117C593.653 181.092 592.798 176.961 591.002 173.803L589.264 174.791C590.828 177.543 591.653 181.292 591.653 186.117H593.653ZM591.009 173.816C589.284 170.673 586.803 168.374 583.584 166.951L582.775 168.78C585.583 170.022 587.737 172.011 589.256 174.778L591.009 173.816ZM583.599 166.957C580.428 165.494 576.745 164.779 572.576 164.779V166.779C576.519 166.779 579.905 167.455 582.761 168.773L583.599 166.957ZM572.576 164.779C567.712 164.779 563.572 165.639 560.203 167.415L561.135 169.184C564.14 167.6 567.937 166.779 572.576 166.779V164.779ZM560.203 167.415C556.868 169.174 554.188 171.607 552.181 174.71L553.86 175.796C555.677 172.988 558.096 170.787 561.135 169.184L560.203 167.415ZM552.181 174.71C550.198 177.774 548.766 181.275 547.873 185.2L549.824 185.643C550.67 181.921 552.019 178.642 553.86 175.796L552.181 174.71ZM547.871 185.211C547.044 189.053 546.632 193.122 546.632 197.416H548.632C548.632 193.25 549.031 189.323 549.826 185.632L547.871 185.211ZM608.266 187.595L597.488 190.897L598.074 192.81L608.852 189.507L608.266 187.595ZM598.781 191.865C598.838 186.811 599.661 181.962 601.248 177.314L599.355 176.668C597.698 181.523 596.84 186.582 596.781 191.842L598.781 191.865ZM601.245 177.325C602.886 172.683 605.232 168.559 608.28 164.947L606.751 163.657C603.542 167.461 601.078 171.797 599.359 176.658L601.245 177.325ZM608.274 164.954C611.363 161.359 615.157 158.518 619.669 156.431L618.829 154.616C614.07 156.817 610.041 159.828 606.757 163.65L608.274 164.954ZM619.678 156.427C624.159 154.298 629.311 153.221 635.154 153.221V151.221C629.062 151.221 623.61 152.345 618.82 154.62L619.678 156.427ZM635.154 153.221C640.109 153.221 644.457 153.876 648.214 155.166L648.864 153.274C644.856 151.898 640.282 151.221 635.154 151.221V153.221ZM648.219 155.167C652.019 156.452 655.18 158.427 657.725 161.083L659.169 159.699C656.384 156.792 652.94 154.652 648.859 153.272L648.219 155.167ZM657.74 161.098C660.334 163.692 662.317 167.053 663.667 171.216L665.569 170.599C664.138 166.186 662.007 162.536 659.154 159.684L657.74 161.098ZM663.667 171.216C665.017 175.378 665.704 180.368 665.704 186.204H667.704C667.704 180.22 667.001 175.012 665.569 170.599L663.667 171.216ZM665.704 186.204V248H667.704V186.204H665.704ZM666.704 247H650.538V249H666.704V247ZM651.538 248V186.03H649.538V248H651.538ZM651.538 186.03C651.538 180.673 650.688 176.387 648.883 173.274L647.153 174.277C648.708 176.958 649.538 180.842 649.538 186.03H651.538ZM648.894 173.294C647.164 170.142 644.667 167.919 641.423 166.671L640.705 168.538C643.488 169.608 645.627 171.499 647.141 174.257L648.894 173.294ZM641.445 166.68C638.34 165.401 634.67 164.779 630.461 164.779V166.779C634.48 166.779 637.879 167.374 640.684 168.529L641.445 166.68ZM630.461 164.779C626.811 164.779 623.539 165.408 620.666 166.691L621.482 168.518C624.056 167.368 627.041 166.779 630.461 166.779V164.779ZM620.666 166.691C617.816 167.965 615.407 169.731 613.452 171.991L614.964 173.3C616.718 171.272 618.885 169.678 621.482 168.518L620.666 166.691ZM613.461 171.981C611.519 174.166 610.035 176.681 609.009 179.519L610.89 180.2C611.833 177.591 613.189 175.297 614.955 173.31L613.461 171.981ZM609.003 179.537C608.038 182.371 607.559 185.378 607.559 188.551H609.559C609.559 185.582 610.006 182.794 610.896 180.182L609.003 179.537ZM744.231 173.862L743.345 174.324L743.35 174.335L743.356 174.346L744.231 173.862ZM715.984 167.257L715.572 166.346L715.565 166.349L715.984 167.257ZM708.857 172.732L708.065 172.123L708.06 172.129L708.055 172.136L708.857 172.732ZM706.337 180.033V181.033H707.337V180.033H706.337ZM690.258 180.033H689.258V181.033H690.258V180.033ZM700.34 161.086L700.975 161.859L700.976 161.857L700.34 161.086ZM712.16 154.654L712.484 155.601L712.491 155.598L712.16 154.654ZM745.709 155.697L745.303 156.611L745.307 156.613L745.709 155.697ZM758.051 166.214L757.205 166.747L757.208 166.753L757.212 166.759L758.051 166.214ZM763.353 237.483L762.363 237.629L762.364 237.637L762.366 237.645L763.353 237.483ZM765.873 246.609H766.873V246.403L766.791 246.213L765.873 246.609ZM765.873 248V249H766.873V248H765.873ZM749.099 248L748.182 248.401L748.445 249H749.099V248ZM747.187 240.612L746.197 240.759L746.198 240.762L747.187 240.612ZM749.272 190.984L750.272 190.969L750.257 189.984H749.272V190.984ZM749.446 202.283V203.283H750.462L750.446 202.268L749.446 202.283ZM720.938 203.413L721.128 204.395L721.136 204.393L721.144 204.392L720.938 203.413ZM706.337 212.104L707.197 212.616L707.202 212.606L706.337 212.104ZM712.421 233.572L711.943 234.451L711.955 234.457L711.966 234.463L712.421 233.572ZM744.405 224.881L743.605 224.281L743.598 224.291L744.405 224.881ZM748.056 216.103L748.804 215.439L747.205 213.637L747.058 216.041L748.056 216.103ZM754.922 223.838L755.908 224.002L755.987 223.531L755.67 223.174L754.922 223.838ZM744.405 240.438L745.075 241.181L745.076 241.18L744.405 240.438ZM733.802 247.131L734.196 248.05L734.202 248.047L733.802 247.131ZM703.295 246.001L702.831 246.887L702.835 246.889L703.295 246.001ZM692.17 236.006L691.319 236.531L691.323 236.537L691.327 236.544L692.17 236.006ZM691.214 208.541L692.103 208.999L692.106 208.994L691.214 208.541ZM699.731 198.894L700.298 199.718L700.307 199.712L699.731 198.894ZM747.491 231.921V183.51H745.491V231.921H747.491ZM747.491 183.51C747.491 179.665 746.709 176.276 745.106 173.378L743.356 174.346C744.767 176.896 745.491 179.938 745.491 183.51H747.491ZM745.118 173.4C743.568 170.424 741.209 168.135 738.08 166.54L737.172 168.322C739.953 169.739 741.998 171.738 743.345 174.324L745.118 173.4ZM738.08 166.54C734.948 164.943 731.131 164.171 726.675 164.171V166.171C730.91 166.171 734.394 166.905 737.172 168.322L738.08 166.54ZM726.675 164.171C722.505 164.171 718.796 164.886 715.572 166.346L716.397 168.168C719.315 166.847 722.733 166.171 726.675 166.171V164.171ZM715.565 166.349C712.43 167.796 709.917 169.715 708.065 172.123L709.65 173.342C711.275 171.23 713.513 169.499 716.403 168.165L715.565 166.349ZM708.055 172.136C706.257 174.553 705.337 177.193 705.337 180.033H707.337C707.337 177.658 708.097 175.431 709.66 173.329L708.055 172.136ZM706.337 179.033H690.258V181.033H706.337V179.033ZM691.258 180.033C691.258 176.852 692.079 173.679 693.75 170.504L691.98 169.572C690.175 173.003 689.258 176.493 689.258 180.033H691.258ZM693.75 170.504C695.419 167.333 697.82 164.45 700.975 161.859L699.705 160.313C696.37 163.053 693.788 166.138 691.98 169.572L693.75 170.504ZM700.976 161.857C704.175 159.22 708.005 157.131 712.484 155.601L711.837 153.708C707.16 155.306 703.111 157.505 699.704 160.314L700.976 161.857ZM712.491 155.598C717.005 154.018 722.048 153.221 727.631 153.221V151.221C721.857 151.221 716.587 152.046 711.83 153.71L712.491 155.598ZM727.631 153.221C734.355 153.221 740.239 154.36 745.303 156.611L746.115 154.783C740.75 152.399 734.581 151.221 727.631 151.221V153.221ZM745.307 156.613C750.404 158.853 754.36 162.229 757.205 166.747L758.897 165.681C755.831 160.812 751.56 157.177 746.111 154.782L745.307 156.613ZM757.212 166.759C760.095 171.194 761.57 176.814 761.57 183.684H763.57C763.57 176.531 762.033 170.505 758.889 165.669L757.212 166.759ZM761.57 183.684V227.488H763.57V183.684H761.57ZM761.57 227.488C761.57 230.672 761.836 234.053 762.363 237.629L764.342 237.337C763.826 233.845 763.57 230.562 763.57 227.488H761.57ZM762.366 237.645C762.955 241.238 763.814 244.363 764.955 247.006L766.791 246.213C765.73 243.757 764.909 240.797 764.339 237.322L762.366 237.645ZM764.873 246.609V248H766.873V246.609H764.873ZM765.873 247H749.099V249H765.873V247ZM750.015 247.599C749.252 245.856 748.632 243.488 748.175 240.463L746.198 240.762C746.668 243.878 747.323 246.436 748.182 248.401L750.015 247.599ZM748.176 240.466C747.718 237.377 747.491 234.529 747.491 231.921H745.491C745.491 234.643 745.728 237.59 746.197 240.759L748.176 240.466ZM748.273 191L748.446 202.299L750.446 202.268L750.272 190.969L748.273 191ZM749.446 201.283H733.193V203.283H749.446V201.283ZM733.193 201.283C728.563 201.283 724.407 201.664 720.733 202.434L721.144 204.392C724.655 203.656 728.669 203.283 733.193 203.283V201.283ZM720.748 202.431C717.074 203.142 713.945 204.248 711.388 205.77L712.411 207.488C714.721 206.113 717.618 205.074 721.128 204.395L720.748 202.431ZM711.388 205.77C708.825 207.295 706.841 209.238 705.471 211.603L707.202 212.606C708.382 210.568 710.107 208.86 712.411 207.488L711.388 205.77ZM705.477 211.593C704.097 213.915 703.425 216.618 703.425 219.666H705.425C705.425 216.919 706.028 214.581 707.196 212.616L705.477 211.593ZM703.425 219.666C703.425 222.778 704.128 225.639 705.547 228.229L707.301 227.269C706.054 224.992 705.425 222.464 705.425 219.666H703.425ZM705.547 228.229C706.98 230.847 709.126 232.92 711.943 234.451L712.898 232.694C710.385 231.328 708.533 229.518 707.301 227.269L705.547 228.229ZM711.966 234.463C714.865 235.943 718.362 236.658 722.416 236.658V234.658C718.59 234.658 715.423 233.983 712.876 232.682L711.966 234.463ZM722.416 236.658C727.486 236.658 732.003 235.583 735.938 233.404L734.969 231.655C731.371 233.647 727.196 234.658 722.416 234.658V236.658ZM735.938 233.404C739.811 231.259 742.913 228.618 745.213 225.471L743.598 224.291C741.494 227.17 738.627 229.628 734.969 231.655L735.938 233.404ZM745.205 225.481C747.545 222.361 748.865 219.252 749.054 216.164L747.058 216.041C746.899 218.632 745.785 221.375 743.605 224.281L745.205 225.481ZM747.308 216.766L754.174 224.502L755.67 223.174L748.804 215.439L747.308 216.766ZM753.935 223.673C753.557 225.942 752.519 228.515 750.765 231.401L752.474 232.44C754.311 229.417 755.475 226.601 755.908 224.002L753.935 223.673ZM750.765 231.401C749.027 234.261 746.688 237.027 743.735 239.697L745.076 241.18C748.148 238.403 750.619 235.491 752.474 232.44L750.765 231.401ZM743.736 239.696C740.87 242.281 737.429 244.456 733.402 246.214L734.202 248.047C738.402 246.213 742.031 243.927 745.075 241.181L743.736 239.696ZM733.408 246.212C729.494 247.889 725.054 248.738 720.069 248.738V250.738C725.283 250.738 729.997 249.849 734.196 248.05L733.408 246.212ZM720.069 248.738C713.827 248.738 708.399 247.519 703.755 245.113L702.835 246.889C707.809 249.466 713.564 250.738 720.069 250.738V248.738ZM703.759 245.115C699.149 242.698 695.576 239.48 693.013 235.467L691.327 236.544C694.094 240.875 697.938 244.321 702.831 246.887L703.759 245.115ZM693.021 235.481C690.516 231.417 689.259 226.878 689.259 221.839H687.259C687.259 227.229 688.609 232.135 691.319 236.531L693.021 235.481ZM689.259 221.839C689.259 216.93 690.217 212.659 692.103 208.999L690.325 208.083C688.27 212.071 687.259 216.666 687.259 221.839H689.259ZM692.106 208.994C693.997 205.266 696.723 202.176 700.298 199.718L699.165 198.07C695.324 200.71 692.37 204.052 690.322 208.088L692.106 208.994ZM700.307 199.712C703.899 197.186 708.245 195.26 713.364 193.952L712.869 192.015C707.558 193.372 702.98 195.387 699.156 198.076L700.307 199.712ZM713.364 193.952C718.484 192.644 724.222 191.984 730.586 191.984V189.984C724.086 189.984 718.178 190.658 712.869 192.015L713.364 193.952ZM730.586 191.984H749.272V189.984H730.586V191.984ZM803.941 168.734H804.941V168.72L804.941 168.705L803.941 168.734ZM803.941 248V249H804.941V248H803.941ZM787.862 248H786.862V249H787.862V248ZM787.862 153.959V152.959H786.862V153.959H787.862ZM803.507 153.959L804.506 153.93L804.478 152.959H803.507V153.959ZM833.318 153.438L834.318 153.443L834.322 152.821L833.766 152.543L833.318 153.438ZM833.231 168.387L833.019 169.364L834.224 169.626L834.231 168.393L833.231 168.387ZM829.407 167.865L829.308 168.86L829.334 168.863L829.36 168.864L829.407 167.865ZM803.681 181.771L802.752 181.4L802.748 181.41L803.681 181.771ZM801.508 191.158L802.008 192.024L802.451 191.769L802.503 191.259L801.508 191.158ZM796.988 193.766H795.988V195.497L797.488 194.632L796.988 193.766ZM798.64 177.773L797.666 177.547L797.663 177.558L798.64 177.773ZM803.941 164.562L804.791 165.09L804.794 165.084L803.941 164.562ZM812.98 155.523L813.487 156.386L813.491 156.383L812.98 155.523ZM830.189 152.655L830.001 153.637L830.019 153.641L830.037 153.644L830.189 152.655ZM802.941 168.734V248H804.941V168.734H802.941ZM803.941 247H787.862V249H803.941V247ZM788.862 248V153.959H786.862V248H788.862ZM787.862 154.959H803.507V152.959H787.862V154.959ZM802.507 153.988L802.942 168.764L804.941 168.705L804.506 153.93L802.507 153.988ZM832.318 153.432L832.231 168.381L834.231 168.393L834.318 153.443L832.318 153.432ZM833.444 167.41C832.063 167.109 830.733 166.927 829.455 166.866L829.36 168.864C830.515 168.919 831.734 169.085 833.019 169.364L833.444 167.41ZM829.507 166.87C828.307 166.75 826.94 166.691 825.409 166.691V168.691C826.892 168.691 828.19 168.748 829.308 168.86L829.507 166.87ZM825.409 166.691C821.598 166.691 818.191 167.287 815.21 168.504L815.966 170.356C818.663 169.255 821.804 168.691 825.409 168.691V166.691ZM815.21 168.504C812.248 169.713 809.722 171.414 807.647 173.61L809.101 174.983C810.966 173.008 813.249 171.464 815.966 170.356L815.21 168.504ZM807.647 173.61C805.583 175.795 803.954 178.396 802.752 181.4L804.609 182.143C805.725 179.352 807.225 176.97 809.101 174.983L807.647 173.61ZM802.748 181.41C801.611 184.343 800.869 187.56 800.513 191.057L802.503 191.259C802.842 187.919 803.548 184.879 804.613 182.133L802.748 181.41ZM801.008 190.292L796.489 192.899L797.488 194.632L802.008 192.024L801.008 190.292ZM797.988 193.766C797.988 188.152 798.532 182.894 799.616 177.989L797.663 177.558C796.545 182.619 795.988 188.023 795.988 193.766H797.988ZM799.614 178C800.751 173.109 802.48 168.81 804.791 165.09L803.092 164.035C800.651 167.964 798.846 172.472 797.666 177.547L799.614 178ZM804.794 165.084C807.091 161.332 809.989 158.44 813.487 156.386L812.474 154.661C808.671 156.894 805.543 160.029 803.088 164.041L804.794 165.084ZM813.491 156.383C817.019 154.289 821.239 153.221 826.191 153.221V151.221C820.946 151.221 816.359 152.355 812.47 154.664L813.491 156.383ZM826.191 153.221C827.27 153.221 828.538 153.356 830.001 153.637L830.378 151.673C828.828 151.375 827.43 151.221 826.191 151.221V153.221ZM830.037 153.644C831.542 153.875 832.445 154.119 832.871 154.332L833.766 152.543C833.032 152.176 831.85 151.899 830.342 151.667L830.037 153.644ZM891.898 153.959H892.898V152.959H891.898V153.959ZM891.898 166.301V167.301H892.898V166.301H891.898ZM841.054 166.301H840.054V167.301H841.054V166.301ZM841.054 153.959V152.959H840.054V153.959H841.054ZM858.263 131.101V130.101H857.263V131.101H858.263ZM874.342 131.101H875.342V130.101H874.342V131.101ZM888.856 235.571L889.014 236.559L889.03 236.556L889.045 236.553L888.856 235.571ZM892.246 234.876L893.246 234.869L893.238 233.621L892.021 233.902L892.246 234.876ZM892.333 248L892.636 248.953L893.338 248.73L893.333 247.993L892.333 248ZM887.292 249.13L887.128 248.143L887.112 248.146L887.096 248.149L887.292 249.13ZM861.131 239.569L860.242 240.028L860.246 240.036L860.251 240.044L861.131 239.569ZM890.898 153.959V166.301H892.898V153.959H890.898ZM891.898 165.301H841.054V167.301H891.898V165.301ZM842.054 166.301V153.959H840.054V166.301H842.054ZM841.054 154.959H891.898V152.959H841.054V154.959ZM858.263 132.101H874.342V130.101H858.263V132.101ZM873.342 131.101V224.707H875.342V131.101H873.342ZM873.342 224.707C873.342 227.967 873.84 230.588 874.965 232.44L876.674 231.402C875.828 230.009 875.342 227.821 875.342 224.707H873.342ZM874.965 232.44C876.053 234.232 877.505 235.478 879.327 236.085L879.96 234.188C878.654 233.753 877.556 232.854 876.674 231.402L874.965 232.44ZM879.327 236.085C881.002 236.644 882.79 236.919 884.685 236.919V234.919C882.986 234.919 881.414 234.673 879.96 234.188L879.327 236.085ZM884.685 236.919C886.075 236.919 887.519 236.798 889.014 236.559L888.698 234.584C887.297 234.808 885.959 234.919 884.685 234.919V236.919ZM889.045 236.553C890.555 236.263 891.699 236.028 892.471 235.85L892.021 233.902C891.287 234.071 890.171 234.3 888.668 234.589L889.045 236.553ZM891.246 234.883L891.333 248.007L893.333 247.993L893.246 234.869L891.246 234.883ZM892.03 247.047C890.819 247.432 889.19 247.8 887.128 248.143L887.456 250.116C889.566 249.765 891.298 249.379 892.636 248.953L892.03 247.047ZM887.096 248.149C885.152 248.538 882.76 248.738 879.904 248.738V250.738C882.843 250.738 885.376 250.533 887.488 250.11L887.096 248.149ZM879.904 248.738C876.1 248.738 872.627 247.984 869.468 246.488L868.612 248.295C872.059 249.928 875.828 250.738 879.904 250.738V248.738ZM869.468 246.488C866.383 245.027 863.894 242.584 862.011 239.094L860.251 240.044C862.308 243.856 865.091 246.628 868.612 248.295L869.468 246.488ZM862.02 239.111C860.208 235.598 859.263 230.792 859.263 224.62H857.263C857.263 230.964 858.229 236.124 860.242 240.028L862.02 239.111ZM859.263 224.62V131.101H857.263V224.62H859.263ZM921.102 248L920.102 247.991L920.093 249H921.102V248ZM921.275 227.662V226.662H920.284L920.275 227.654L921.275 227.662ZM965.949 223.056L966.497 223.892L966.504 223.888L965.949 223.056ZM976.553 209.41L975.627 209.033L975.624 209.04L976.553 209.41ZM978.117 164.476L977.152 164.737L977.155 164.747L978.117 164.476ZM962.299 144.485L961.89 145.398L961.902 145.403L962.299 144.485ZM920.58 141.878H919.58V142.878H920.58V141.878ZM920.58 121.453V120.453H919.58V121.453H920.58ZM972.12 125.799L971.738 126.723L971.747 126.727L972.12 125.799ZM990.459 138.054L991.178 137.358L990.459 138.054ZM1002.37 157.175L1001.43 157.526L1001.43 157.535L1002.37 157.175ZM1002.37 212.365L1001.43 212.008L1001.43 212.014L1002.37 212.365ZM990.459 231.486L989.74 230.791L989.74 230.791L990.459 231.486ZM972.12 243.741L972.493 244.669L972.497 244.668L972.12 243.741ZM935.877 121.453H936.877V120.453H935.877V121.453ZM935.877 248V249H936.877V248H935.877ZM909.803 248H908.803V249H909.803V248ZM909.803 121.453V120.453H908.803V121.453H909.803ZM948.653 247H921.102V249H948.653V247ZM922.102 248.009L922.275 227.671L920.275 227.654L920.102 247.991L922.102 248.009ZM921.275 228.662H948.653V226.662H921.275V228.662ZM948.653 228.662C955.642 228.662 961.608 227.091 966.497 223.892L965.402 222.219C960.904 225.162 955.339 226.662 948.653 226.662V228.662ZM966.504 223.888C971.389 220.631 975.042 215.909 977.482 209.78L975.624 209.04C973.312 214.847 969.896 219.222 965.395 222.224L966.504 223.888ZM977.479 209.788C979.974 203.669 981.203 196.319 981.203 187.769H979.203C979.203 196.137 977.999 203.215 975.627 209.033L977.479 209.788ZM981.203 187.769V181.598H979.203V187.769H981.203ZM981.203 181.598C981.203 175.04 980.501 169.237 979.08 164.204L977.155 164.747C978.515 169.564 979.203 175.177 979.203 181.598H981.203ZM979.082 164.214C977.721 159.183 975.668 154.911 972.904 151.425L971.337 152.668C973.903 155.904 975.848 159.918 977.152 164.737L979.082 164.214ZM972.904 151.425C970.137 147.938 966.732 145.314 962.696 143.568L961.902 145.403C965.63 147.017 968.772 149.435 971.337 152.668L972.904 151.425ZM962.707 143.573C958.675 141.767 954.07 140.878 948.914 140.878V142.878C953.84 142.878 958.158 143.727 961.89 145.398L962.707 143.573ZM948.914 140.878H920.58V142.878H948.914V140.878ZM921.58 141.878V121.453H919.58V141.878H921.58ZM920.58 122.453H948.914V120.453H920.58V122.453ZM948.914 122.453C957.258 122.453 964.861 123.881 971.738 126.723L972.502 124.875C965.357 121.922 957.49 120.453 948.914 120.453V122.453ZM971.747 126.727C978.69 129.515 984.684 133.522 989.74 138.749L991.178 137.358C985.92 131.924 979.689 127.761 972.493 124.871L971.747 126.727ZM989.74 138.749C994.795 143.975 998.693 150.229 1001.43 157.526L1003.3 156.824C1000.48 149.287 996.436 142.794 991.178 137.358L989.74 138.749ZM1001.43 157.535C1004.22 164.763 1005.62 172.838 1005.62 181.771H1007.62C1007.62 172.627 1006.19 164.304 1003.3 156.815L1001.43 157.535ZM1005.62 181.771V187.769H1007.62V181.771H1005.62ZM1005.62 187.769C1005.62 196.643 1004.22 204.719 1001.43 212.008L1003.3 212.723C1006.19 205.178 1007.62 196.856 1007.62 187.769H1005.62ZM1001.43 212.014C998.693 219.311 994.795 225.565 989.74 230.791L991.178 232.182C996.436 226.746 1000.48 220.253 1003.3 212.716L1001.43 212.014ZM989.74 230.791C984.743 235.959 978.748 239.967 971.744 242.815L972.497 244.668C979.746 241.721 985.977 237.559 991.178 232.181L989.74 230.791ZM971.747 242.813C964.811 245.599 957.117 247 948.653 247V249C957.341 249 965.291 247.562 972.493 244.669L971.747 242.813ZM934.877 121.453V248H936.877V121.453H934.877ZM935.877 247H909.803V249H935.877V247ZM910.803 248V121.453H908.803V248H910.803ZM909.803 122.453H935.877V120.453H909.803V122.453ZM1049.04 174.471H1050.04V174.435L1050.04 174.399L1049.04 174.471ZM1049.04 248V249H1050.04V248H1049.04ZM1024.01 248H1023.01V249H1024.01V248ZM1024.01 153.959V152.959H1023.01V153.959H1024.01ZM1047.56 153.959L1048.56 153.887L1048.49 152.959H1047.56V153.959ZM1077.37 153.351L1078.37 153.369L1078.39 152.662L1077.72 152.414L1077.37 153.351ZM1076.94 176.557L1076.8 177.547L1077.92 177.707L1077.94 176.575L1076.94 176.557ZM1072.51 176.122L1072.4 177.117L1072.42 177.119L1072.44 177.12L1072.51 176.122ZM1058.69 177.252L1059.01 178.199L1059.02 178.194L1058.69 177.252ZM1052.25 181.163L1051.55 180.456L1051.54 180.462L1051.54 180.468L1052.25 181.163ZM1048.43 187.508L1047.49 187.178L1047.48 187.188L1047.48 187.198L1048.43 187.508ZM1047.04 196.025L1046.74 196.98L1047.99 197.368L1048.04 196.062L1047.04 196.025ZM1042 194.461H1041V195.198L1041.7 195.416L1042 194.461ZM1043.82 177.687L1044.8 177.919L1044.8 177.916L1043.82 177.687ZM1049.13 164.215L1048.28 163.687L1048.27 163.697L1049.13 164.215ZM1057.82 155.35L1057.3 154.496L1057.3 154.496L1057.82 155.35ZM1073.81 152.568L1073.65 153.556L1073.67 153.559L1073.69 153.561L1073.81 152.568ZM1048.04 174.471V248H1050.04V174.471H1048.04ZM1049.04 247H1024.01V249H1049.04V247ZM1025.01 248V153.959H1023.01V248H1025.01ZM1024.01 154.959H1047.56V152.959H1024.01V154.959ZM1046.56 154.031L1048.04 174.543L1050.04 174.399L1048.56 153.887L1046.56 154.031ZM1076.37 153.332L1075.94 176.538L1077.94 176.575L1078.37 153.369L1076.37 153.332ZM1077.08 175.567C1075.83 175.388 1074.33 175.241 1072.57 175.124L1072.44 177.12C1074.16 177.235 1075.61 177.377 1076.8 177.547L1077.08 175.567ZM1072.61 175.127C1070.9 174.951 1069.33 174.861 1067.9 174.861V176.861C1069.25 176.861 1070.75 176.946 1072.4 177.117L1072.61 175.127ZM1067.9 174.861C1064.28 174.861 1061.09 175.335 1058.35 176.31L1059.02 178.194C1061.5 177.314 1064.45 176.861 1067.9 176.861V174.861ZM1058.36 176.305C1055.68 177.219 1053.4 178.6 1051.55 180.456L1052.96 181.87C1054.58 180.25 1056.59 179.023 1059.01 178.198L1058.36 176.305ZM1051.54 180.468C1049.75 182.32 1048.4 184.563 1047.49 187.178L1049.37 187.837C1050.2 185.47 1051.4 183.483 1052.97 181.858L1051.54 180.468ZM1047.48 187.198C1046.63 189.795 1046.16 192.729 1046.04 195.989L1048.04 196.062C1048.15 192.948 1048.6 190.204 1049.38 187.817L1047.48 187.198ZM1047.34 195.07L1042.3 193.506L1041.7 195.416L1046.74 196.98L1047.34 195.07ZM1043 194.461C1043 188.443 1043.6 182.931 1044.8 177.919L1042.85 177.454C1041.61 182.64 1041 188.311 1041 194.461H1043ZM1044.8 177.916C1045.99 172.843 1047.73 168.453 1049.98 164.733L1048.27 163.697C1045.89 167.625 1044.09 172.216 1042.85 177.457L1044.8 177.916ZM1049.98 164.743C1052.28 161.034 1055.07 158.198 1058.34 156.203L1057.3 154.496C1053.73 156.673 1050.72 159.747 1048.28 163.687L1049.98 164.743ZM1058.34 156.203C1061.58 154.222 1065.31 153.221 1069.55 153.221V151.221C1064.98 151.221 1060.89 152.305 1057.3 154.496L1058.34 156.203ZM1069.55 153.221C1070.89 153.221 1072.25 153.332 1073.65 153.556L1073.97 151.581C1072.47 151.341 1071 151.221 1069.55 151.221V153.221ZM1073.69 153.561C1075.09 153.73 1076.2 153.977 1077.02 154.287L1077.72 152.414C1076.7 152.029 1075.42 151.755 1073.93 151.575L1073.69 153.561ZM1085.54 181.076L1086.49 181.398L1086.49 181.395L1085.54 181.076ZM1108.05 155.871L1108.45 156.789L1108.46 156.786L1108.05 155.871ZM1146.04 155.871L1145.63 156.787L1145.64 156.791L1146.04 155.871ZM1160.03 165.866L1159.28 166.526L1159.28 166.532L1160.03 165.866ZM1168.72 181.076L1167.77 181.395L1167.77 181.398L1168.72 181.076ZM1168.72 220.97L1169.67 221.292L1169.67 221.289L1168.72 220.97ZM1160.03 236.18L1159.28 235.519L1159.28 235.52L1160.03 236.18ZM1108.14 246.175L1107.74 247.093L1107.75 247.094L1108.14 246.175ZM1094.15 236.18L1093.39 236.835L1093.4 236.84L1093.4 236.845L1094.15 236.18ZM1085.54 220.97L1084.6 221.289L1084.6 221.292L1085.54 220.97ZM1111.96 222.013L1111.1 222.513L1111.11 222.524L1111.11 222.536L1111.96 222.013ZM1142.12 222.013L1142.98 222.521L1142.99 222.513L1142.12 222.013ZM1145.43 212.974L1144.45 212.758L1144.45 212.766L1144.45 212.774L1145.43 212.974ZM1145.43 189.333L1144.45 189.532L1144.45 189.542L1144.45 189.552L1145.43 189.333ZM1142.04 180.294L1141.17 180.786L1141.17 180.797L1141.18 180.808L1142.04 180.294ZM1117.96 174.036L1117.44 173.18L1117.44 173.186L1117.96 174.036ZM1111.96 180.294L1111.1 179.788L1111.1 179.794L1111.96 180.294ZM1108.66 189.333L1109.64 189.536L1109.64 189.532L1108.66 189.333ZM1083.59 201.936V200.11H1081.59V201.936H1083.59ZM1083.59 200.11C1083.59 193.311 1084.56 187.076 1086.49 181.398L1084.6 180.754C1082.59 186.664 1081.59 193.119 1081.59 200.11H1083.59ZM1086.49 181.395C1088.42 175.658 1091.23 170.706 1094.9 166.526L1093.4 165.206C1089.54 169.601 1086.6 174.79 1084.6 180.757L1086.49 181.395ZM1094.9 166.526C1098.56 162.355 1103.07 159.109 1108.45 156.789L1107.66 154.953C1102.02 157.384 1097.27 160.802 1093.4 165.206L1094.9 166.526ZM1108.46 156.786C1113.81 154.418 1119.99 153.221 1127 153.221V151.221C1119.76 151.221 1113.3 152.457 1107.65 154.956L1108.46 156.786ZM1127 153.221C1134.01 153.221 1140.22 154.418 1145.63 156.787L1146.44 154.955C1140.73 152.457 1134.24 151.221 1127 151.221V153.221ZM1145.64 156.791C1151.08 159.111 1155.62 162.357 1159.28 166.526L1160.78 165.206C1156.91 160.8 1152.12 157.382 1146.43 154.951L1145.64 156.791ZM1159.28 166.532C1163.01 170.711 1165.84 175.661 1167.77 181.395L1169.67 180.757C1167.66 174.787 1164.7 169.596 1160.77 165.201L1159.28 166.532ZM1167.77 181.398C1169.7 187.076 1170.67 193.311 1170.67 200.11H1172.67C1172.67 193.119 1171.68 186.664 1169.67 180.754L1167.77 181.398ZM1170.67 200.11V201.936H1172.67V200.11H1170.67ZM1170.67 201.936C1170.67 208.676 1169.7 214.912 1167.77 220.651L1169.67 221.289C1171.68 215.323 1172.67 208.87 1172.67 201.936H1170.67ZM1167.77 220.648C1165.84 226.325 1163.01 231.278 1159.28 235.519L1160.78 236.84C1164.7 232.39 1167.66 227.203 1169.67 221.292L1167.77 220.648ZM1159.28 235.52C1155.61 239.691 1151.1 242.937 1145.73 245.257L1146.52 247.093C1152.15 244.662 1156.91 241.244 1160.78 236.84L1159.28 235.52ZM1145.73 245.257C1140.37 247.569 1134.19 248.738 1127.17 248.738V250.738C1134.41 250.738 1140.87 249.532 1146.52 247.093L1145.73 245.257ZM1127.17 248.738C1120.16 248.738 1113.95 247.569 1108.53 245.255L1107.75 247.094C1113.45 249.532 1119.94 250.738 1127.17 250.738V248.738ZM1108.54 245.257C1103.16 242.936 1098.62 239.688 1094.89 235.514L1093.4 236.845C1097.33 241.246 1102.11 244.662 1107.74 247.093L1108.54 245.257ZM1094.9 235.525C1091.23 231.283 1088.42 226.328 1086.49 220.648L1084.6 221.292C1086.61 227.2 1089.54 232.385 1093.39 236.835L1094.9 235.525ZM1086.49 220.651C1084.56 214.912 1083.59 208.676 1083.59 201.936H1081.59C1081.59 208.87 1082.59 215.323 1084.6 221.289L1086.49 220.651ZM1106.62 200.11V201.936H1108.62V200.11H1106.62ZM1106.62 201.936C1106.62 205.934 1106.97 209.681 1107.68 213.173L1109.64 212.774C1108.96 209.429 1108.62 205.817 1108.62 201.936H1106.62ZM1107.68 213.173C1108.4 216.681 1109.53 219.799 1111.1 222.513L1112.83 221.512C1111.39 219.012 1110.32 216.104 1109.64 212.774L1107.68 213.173ZM1111.11 222.536C1112.76 225.221 1114.91 227.339 1117.55 228.874L1118.55 227.145C1116.21 225.783 1114.3 223.904 1112.82 221.49L1111.11 222.536ZM1117.55 228.874C1120.22 230.431 1123.45 231.183 1127.17 231.183V229.183C1123.72 229.183 1120.86 228.486 1118.55 227.145L1117.55 228.874ZM1127.17 231.183C1130.79 231.183 1133.96 230.428 1136.63 228.874L1135.62 227.145C1133.31 228.488 1130.51 229.183 1127.17 229.183V231.183ZM1136.63 228.874C1139.27 227.337 1141.39 225.214 1142.98 222.521L1141.26 221.504C1139.84 223.91 1137.96 225.785 1135.62 227.145L1136.63 228.874ZM1142.99 222.513C1144.56 219.799 1145.69 216.681 1146.41 213.173L1144.45 212.774C1143.77 216.104 1142.7 219.012 1141.26 221.512L1142.99 222.513ZM1146.4 213.189C1147.17 209.691 1147.56 205.939 1147.56 201.936H1145.56C1145.56 205.812 1145.19 209.419 1144.45 212.758L1146.4 213.189ZM1147.56 201.936V200.11H1145.56V201.936H1147.56ZM1147.56 200.11C1147.56 196.221 1147.17 192.554 1146.4 189.114L1144.45 189.552C1145.19 192.833 1145.56 196.352 1145.56 200.11H1147.56ZM1146.41 189.134C1145.69 185.62 1144.53 182.497 1142.89 179.779L1141.18 180.808C1142.68 183.305 1143.77 186.209 1144.45 189.532L1146.41 189.134ZM1142.91 179.802C1141.32 176.995 1139.2 174.78 1136.56 173.18L1135.52 174.892C1137.86 176.305 1139.74 178.262 1141.17 180.786L1142.91 179.802ZM1136.56 173.18C1133.88 171.561 1130.68 170.776 1127 170.776V172.776C1130.39 172.776 1133.22 173.498 1135.52 174.892L1136.56 173.18ZM1127 170.776C1123.32 170.776 1120.12 171.561 1117.44 173.18L1118.48 174.892C1120.78 173.498 1123.61 172.776 1127 172.776V170.776ZM1117.44 173.186C1114.85 174.785 1112.74 176.994 1111.1 179.788L1112.83 180.8C1114.32 178.264 1116.2 176.301 1118.49 174.886L1117.44 173.186ZM1111.1 179.794C1109.53 182.508 1108.4 185.626 1107.68 189.134L1109.64 189.532C1110.32 186.203 1111.39 183.295 1112.83 180.794L1111.1 179.794ZM1107.68 189.13C1106.97 192.565 1106.62 196.226 1106.62 200.11H1108.62C1108.62 196.347 1108.96 192.823 1109.64 189.536L1107.68 189.13ZM1212.09 172.037H1213.09V171.987L1213.08 171.937L1212.09 172.037ZM1212.09 284.156V285.156H1213.09V284.156H1212.09ZM1187.06 284.156H1186.06V285.156H1187.06V284.156ZM1187.06 153.959V152.959H1186.06V153.959H1187.06ZM1210.26 153.959L1211.26 153.859L1211.17 152.959H1210.26V153.959ZM1269.19 220.796L1268.23 220.529L1268.23 220.538L1269.19 220.796ZM1262.24 236.093L1263.05 236.675L1263.06 236.67L1262.24 236.093ZM1250.77 246.175L1251.23 247.06L1251.24 247.058L1250.77 246.175ZM1220.17 246.262L1220.65 245.385L1220.17 246.262ZM1209.48 236.527L1208.65 237.085L1208.66 237.091L1208.66 237.098L1209.48 236.527ZM1198.62 203.935H1197.62V204.007L1197.63 204.079L1198.62 203.935ZM1198.62 199.154L1197.63 199.02L1197.62 199.087V199.154H1198.62ZM1202.62 180.381L1203.57 180.674L1203.57 180.671L1202.62 180.381ZM1209.48 165.519L1208.66 164.953L1208.66 164.956L1209.48 165.519ZM1220.09 155.697L1219.61 154.82L1219.6 154.823L1220.09 155.697ZM1250.68 155.61L1250.23 156.505L1250.24 156.507L1250.68 155.61ZM1262.15 165.345L1261.34 165.932L1261.35 165.939L1262.15 165.345ZM1269.19 180.468L1268.23 180.726L1268.23 180.735L1269.19 180.468ZM1245.46 188.898L1244.48 189.082L1244.48 189.091L1244.49 189.101L1245.46 188.898ZM1242.34 179.946L1241.46 180.425L1241.46 180.433L1241.47 180.44L1242.34 179.946ZM1236.77 174.036L1236.23 174.878L1236.25 174.886L1236.26 174.894L1236.77 174.036ZM1219.74 173.515L1219.33 172.604L1219.32 172.607L1219.74 173.515ZM1209.13 195.591L1208.14 195.543L1208.13 195.567V195.591H1209.13ZM1209.13 207.672H1208.13V207.706L1208.14 207.739L1209.13 207.672ZM1211.57 219.231L1210.64 219.595L1210.64 219.6L1211.57 219.231ZM1217.74 227.228L1217.16 228.044L1217.74 227.228ZM1237.03 228.01L1237.57 228.852L1237.58 228.847L1237.59 228.842L1237.03 228.01ZM1242.51 221.839L1241.64 221.353L1241.63 221.361L1241.63 221.368L1242.51 221.839ZM1245.55 212.8L1244.57 212.617L1244.57 212.625L1244.57 212.633L1245.55 212.8ZM1211.09 172.037V284.156H1213.09V172.037H1211.09ZM1212.09 283.156H1187.06V285.156H1212.09V283.156ZM1188.06 284.156V153.959H1186.06V284.156H1188.06ZM1187.06 154.959H1210.26V152.959H1187.06V154.959ZM1209.27 154.059L1211.09 172.138L1213.08 171.937L1211.26 153.859L1209.27 154.059ZM1270.63 199.937V201.762H1272.63V199.937H1270.63ZM1270.63 201.762C1270.63 208.52 1269.82 214.774 1268.23 220.529L1270.16 221.063C1271.81 215.114 1272.63 208.678 1272.63 201.762H1270.63ZM1268.23 220.538C1266.69 226.291 1264.42 231.279 1261.42 235.516L1263.06 236.67C1266.2 232.215 1268.57 227.005 1270.16 221.054L1268.23 220.538ZM1261.43 235.51C1258.44 239.675 1254.74 242.932 1250.3 245.292L1251.24 247.058C1255.95 244.55 1259.89 241.086 1263.05 236.675L1261.43 235.51ZM1250.3 245.29C1245.95 247.579 1240.9 248.738 1235.12 248.738V250.738C1241.17 250.738 1246.55 249.522 1251.23 247.06L1250.3 245.29ZM1235.12 248.738C1229.52 248.738 1224.71 247.608 1220.65 245.385L1219.69 247.139C1224.09 249.551 1229.25 250.738 1235.12 250.738V248.738ZM1220.65 245.385C1216.57 243.145 1213.12 240.009 1210.3 235.957L1208.66 237.098C1211.64 241.39 1215.32 244.743 1219.69 247.139L1220.65 245.385ZM1210.31 235.97C1207.53 231.831 1205.28 227.024 1203.57 221.541L1201.66 222.137C1203.42 227.779 1205.75 232.764 1208.65 237.085L1210.31 235.97ZM1203.57 221.541C1201.85 216.033 1200.53 210.117 1199.61 203.791L1197.63 204.079C1198.56 210.499 1199.91 216.519 1201.66 222.137L1203.57 221.541ZM1199.62 203.935V199.154H1197.62V203.935H1199.62ZM1199.61 199.289C1200.53 192.497 1201.85 186.293 1203.57 180.674L1201.66 180.088C1199.9 185.826 1198.56 192.137 1197.63 199.02L1199.61 199.289ZM1203.57 180.671C1205.29 175.014 1207.54 170.155 1210.31 166.081L1208.66 164.956C1205.75 169.226 1203.42 174.275 1201.66 180.091L1203.57 180.671ZM1210.31 166.084C1213.12 161.972 1216.55 158.808 1220.57 156.571L1219.6 154.823C1215.28 157.222 1211.64 160.605 1208.66 164.953L1210.31 166.084ZM1220.57 156.574C1224.62 154.35 1229.41 153.221 1234.95 153.221V151.221C1229.13 151.221 1224.01 152.409 1219.61 154.82L1220.57 156.574ZM1234.95 153.221C1240.79 153.221 1245.87 154.326 1250.23 156.505L1251.13 154.716C1246.45 152.375 1241.04 151.221 1234.95 151.221V153.221ZM1250.24 156.507C1254.67 158.693 1258.37 161.83 1261.34 165.932L1262.96 164.757C1259.8 160.399 1255.85 157.047 1251.12 154.714L1250.24 156.507ZM1261.35 165.939C1264.39 170.054 1266.69 174.977 1268.23 180.726L1270.16 180.21C1268.57 174.254 1266.17 169.095 1262.96 164.75L1261.35 165.939ZM1268.23 180.735C1269.82 186.487 1270.63 192.885 1270.63 199.937H1272.63C1272.63 192.734 1271.81 186.153 1270.16 180.201L1268.23 180.735ZM1247.51 201.762V199.937H1245.51V201.762H1247.51ZM1247.51 199.937C1247.51 195.881 1247.16 192.133 1246.44 188.696L1244.49 189.101C1245.17 192.385 1245.51 195.996 1245.51 199.937H1247.51ZM1246.45 188.715C1245.79 185.207 1244.72 182.114 1243.21 179.452L1241.47 180.44C1242.85 182.877 1243.86 185.752 1244.48 189.082L1246.45 188.715ZM1243.21 179.467C1241.74 176.774 1239.77 174.668 1237.29 173.179L1236.26 174.894C1238.41 176.186 1240.15 178.02 1241.46 180.425L1243.21 179.467ZM1237.31 173.194C1234.86 171.623 1231.91 170.863 1228.52 170.863V172.863C1231.61 172.863 1234.17 173.552 1236.23 174.878L1237.31 173.194ZM1228.52 170.863C1224.99 170.863 1221.92 171.43 1219.33 172.604L1220.15 174.426C1222.42 173.397 1225.2 172.863 1228.52 172.863V170.863ZM1219.32 172.607C1216.79 173.779 1214.71 175.482 1213.1 177.709L1214.73 178.88C1216.13 176.936 1217.94 175.452 1220.16 174.422L1219.32 172.607ZM1213.1 177.709C1211.51 179.911 1210.34 182.52 1209.56 185.518L1211.49 186.021C1212.22 183.225 1213.3 180.851 1214.73 178.88L1213.1 177.709ZM1209.56 185.518C1208.78 188.495 1208.31 191.838 1208.14 195.543L1210.13 195.638C1210.3 192.042 1210.76 188.839 1211.49 186.021L1209.56 185.518ZM1208.13 195.591V207.672H1210.13V195.591H1208.13ZM1208.14 207.739C1208.43 212.112 1209.26 216.067 1210.64 219.595L1212.5 218.868C1211.21 215.559 1210.42 211.808 1210.13 207.604L1208.14 207.739ZM1210.64 219.6C1212.04 223.129 1214.21 225.955 1217.16 228.044L1218.32 226.412C1215.7 224.56 1213.76 222.055 1212.5 218.863L1210.64 219.6ZM1217.16 228.044C1220.16 230.167 1224.03 231.183 1228.69 231.183V229.183C1224.31 229.183 1220.88 228.228 1218.32 226.412L1217.16 228.044ZM1228.69 231.183C1232.14 231.183 1235.12 230.425 1237.57 228.852L1236.49 227.168C1234.43 228.492 1231.85 229.183 1228.69 229.183V231.183ZM1237.59 228.842C1240 227.236 1241.93 225.049 1243.39 222.309L1241.63 221.368C1240.31 223.843 1238.59 225.771 1236.48 227.178L1237.59 228.842ZM1243.38 222.325C1244.9 219.603 1245.94 216.479 1246.54 212.967L1244.57 212.633C1244 215.957 1243.02 218.86 1241.64 221.353L1243.38 222.325ZM1246.53 212.983C1247.18 209.497 1247.51 205.755 1247.51 201.762H1245.51C1245.51 205.648 1245.19 209.266 1244.57 212.617L1246.53 212.983ZM1312.21 172.037H1313.21V171.987L1313.21 171.937L1312.21 172.037ZM1312.21 284.156V285.156H1313.21V284.156H1312.21ZM1287.18 284.156H1286.18V285.156H1287.18V284.156ZM1287.18 153.959V152.959H1286.18V153.959H1287.18ZM1310.39 153.959L1311.38 153.859L1311.29 152.959H1310.39V153.959ZM1369.32 220.796L1368.35 220.529L1368.35 220.538L1369.32 220.796ZM1362.36 236.093L1363.18 236.675L1363.18 236.67L1362.36 236.093ZM1350.89 246.175L1351.36 247.06L1351.36 247.058L1350.89 246.175ZM1320.3 246.262L1320.78 245.385L1320.3 246.262ZM1309.61 236.527L1308.78 237.085L1308.78 237.091L1308.79 237.098L1309.61 236.527ZM1298.74 203.935H1297.74V204.007L1297.75 204.079L1298.74 203.935ZM1298.74 199.154L1297.75 199.02L1297.74 199.087V199.154H1298.74ZM1302.74 180.381L1303.7 180.674L1303.7 180.671L1302.74 180.381ZM1309.61 165.519L1308.78 164.953L1308.78 164.956L1309.61 165.519ZM1320.21 155.697L1319.73 154.82L1319.73 154.823L1320.21 155.697ZM1350.8 155.61L1350.36 156.505L1350.36 156.507L1350.8 155.61ZM1362.28 165.345L1361.47 165.932L1361.47 165.939L1362.28 165.345ZM1369.32 180.468L1368.35 180.726L1368.35 180.735L1369.32 180.468ZM1345.59 188.898L1344.61 189.082L1344.61 189.091L1344.61 189.101L1345.59 188.898ZM1342.46 179.946L1341.58 180.425L1341.59 180.433L1341.59 180.44L1342.46 179.946ZM1336.9 174.036L1336.36 174.878L1336.37 174.886L1336.38 174.894L1336.9 174.036ZM1319.86 173.515L1319.45 172.604L1319.44 172.607L1319.86 173.515ZM1309.26 195.591L1308.26 195.543L1308.26 195.567V195.591H1309.26ZM1309.26 207.672H1308.26V207.706L1308.26 207.739L1309.26 207.672ZM1311.69 219.231L1310.76 219.595L1310.76 219.6L1311.69 219.231ZM1317.86 227.228L1317.29 228.044L1317.86 227.228ZM1337.16 228.01L1337.7 228.852L1337.71 228.847L1337.71 228.842L1337.16 228.01ZM1342.63 221.839L1341.76 221.353L1341.76 221.361L1341.75 221.368L1342.63 221.839ZM1345.68 212.8L1344.69 212.617L1344.69 212.625L1344.69 212.633L1345.68 212.8ZM1311.21 172.037V284.156H1313.21V172.037H1311.21ZM1312.21 283.156H1287.18V285.156H1312.21V283.156ZM1288.18 284.156V153.959H1286.18V284.156H1288.18ZM1287.18 154.959H1310.39V152.959H1287.18V154.959ZM1309.39 154.059L1311.22 172.138L1313.21 171.937L1311.38 153.859L1309.39 154.059ZM1370.75 199.937V201.762H1372.75V199.937H1370.75ZM1370.75 201.762C1370.75 208.52 1369.95 214.774 1368.35 220.529L1370.28 221.063C1371.93 215.114 1372.75 208.678 1372.75 201.762H1370.75ZM1368.35 220.538C1366.81 226.291 1364.54 231.279 1361.55 235.516L1363.18 236.67C1366.33 232.215 1368.69 227.005 1370.28 221.054L1368.35 220.538ZM1361.55 235.51C1358.57 239.675 1354.86 242.932 1350.42 245.292L1351.36 247.058C1356.08 244.55 1360.02 241.086 1363.18 236.675L1361.55 235.51ZM1350.43 245.29C1346.07 247.579 1341.02 248.738 1335.25 248.738V250.738C1341.29 250.738 1346.67 249.522 1351.36 247.06L1350.43 245.29ZM1335.25 248.738C1329.65 248.738 1324.84 247.608 1320.78 245.385L1319.82 247.139C1324.22 249.551 1329.37 250.738 1335.25 250.738V248.738ZM1320.78 245.385C1316.69 243.145 1313.24 240.009 1310.43 235.957L1308.79 237.098C1311.77 241.39 1315.44 244.743 1319.82 247.139L1320.78 245.385ZM1310.44 235.97C1307.66 231.831 1305.41 227.024 1303.7 221.541L1301.79 222.137C1303.55 227.779 1305.88 232.764 1308.78 237.085L1310.44 235.97ZM1303.7 221.541C1301.97 216.033 1300.65 210.117 1299.73 203.791L1297.75 204.079C1298.69 210.499 1300.03 216.519 1301.79 222.137L1303.7 221.541ZM1299.74 203.935V199.154H1297.74V203.935H1299.74ZM1299.73 199.289C1300.66 192.497 1301.98 186.293 1303.7 180.674L1301.79 180.088C1300.03 185.826 1298.69 192.137 1297.75 199.02L1299.73 199.289ZM1303.7 180.671C1305.41 175.014 1307.66 170.155 1310.43 166.081L1308.78 164.956C1305.87 169.226 1303.55 174.275 1301.78 180.091L1303.7 180.671ZM1310.43 166.084C1313.25 161.972 1316.67 158.808 1320.7 156.571L1319.73 154.823C1315.41 157.222 1311.76 160.605 1308.78 164.953L1310.43 166.084ZM1320.69 156.574C1324.75 154.35 1329.53 153.221 1335.07 153.221V151.221C1329.26 151.221 1324.13 152.409 1319.73 154.82L1320.69 156.574ZM1335.07 153.221C1340.91 153.221 1346 154.326 1350.36 156.505L1351.25 154.716C1346.57 152.375 1341.17 151.221 1335.07 151.221V153.221ZM1350.36 156.507C1354.79 158.693 1358.49 161.83 1361.47 165.932L1363.09 164.757C1359.92 160.399 1355.97 157.047 1351.25 154.714L1350.36 156.507ZM1361.47 165.939C1364.52 170.054 1366.81 174.977 1368.35 180.726L1370.28 180.21C1368.69 174.254 1366.3 169.095 1363.08 164.75L1361.47 165.939ZM1368.35 180.735C1369.95 186.487 1370.75 192.885 1370.75 199.937H1372.75C1372.75 192.734 1371.93 186.153 1370.28 180.201L1368.35 180.735ZM1347.63 201.762V199.937H1345.63V201.762H1347.63ZM1347.63 199.937C1347.63 195.881 1347.28 192.133 1346.57 188.696L1344.61 189.101C1345.29 192.385 1345.63 195.996 1345.63 199.937H1347.63ZM1346.57 188.715C1345.92 185.207 1344.84 182.114 1343.33 179.452L1341.59 180.44C1342.98 182.877 1343.99 185.752 1344.61 189.082L1346.57 188.715ZM1343.34 179.467C1341.87 176.774 1339.89 174.668 1337.41 173.179L1336.38 174.894C1338.54 176.186 1340.27 178.02 1341.58 180.425L1343.34 179.467ZM1337.44 173.194C1334.99 171.623 1332.04 170.863 1328.64 170.863V172.863C1331.74 172.863 1334.29 173.552 1336.36 174.878L1337.44 173.194ZM1328.64 170.863C1325.12 170.863 1322.05 171.43 1319.45 172.604L1320.28 174.426C1322.55 173.397 1325.33 172.863 1328.64 172.863V170.863ZM1319.44 172.607C1316.91 173.779 1314.84 175.482 1313.23 177.709L1314.85 178.88C1316.26 176.936 1318.06 175.452 1320.28 174.422L1319.44 172.607ZM1313.23 177.709C1311.64 179.911 1310.46 182.52 1309.68 185.518L1311.62 186.021C1312.35 183.225 1313.43 180.851 1314.85 178.88L1313.23 177.709ZM1309.68 185.518C1308.91 188.495 1308.44 191.838 1308.26 195.543L1310.26 195.638C1310.43 192.042 1310.89 188.839 1311.62 186.021L1309.68 185.518ZM1308.26 195.591V207.672H1310.26V195.591H1308.26ZM1308.26 207.739C1308.56 212.112 1309.39 216.067 1310.76 219.595L1312.63 218.868C1311.33 215.559 1310.54 211.808 1310.26 207.604L1308.26 207.739ZM1310.76 219.6C1312.16 223.129 1314.34 225.955 1317.29 228.044L1318.44 226.412C1315.83 224.56 1313.89 222.055 1312.62 218.863L1310.76 219.6ZM1317.29 228.044C1320.28 230.167 1324.16 231.183 1328.82 231.183V229.183C1324.44 229.183 1321.01 228.228 1318.44 226.412L1317.29 228.044ZM1328.82 231.183C1332.27 231.183 1335.24 230.425 1337.7 228.852L1336.62 227.168C1334.55 228.492 1331.97 229.183 1328.82 229.183V231.183ZM1337.71 228.842C1340.12 227.236 1342.06 225.049 1343.52 222.309L1341.75 221.368C1340.43 223.843 1338.71 225.771 1336.6 227.178L1337.71 228.842ZM1343.51 222.325C1345.02 219.603 1346.07 216.479 1346.66 212.967L1344.69 212.633C1344.13 215.957 1343.15 218.86 1341.76 221.353L1343.51 222.325ZM1346.66 212.983C1347.31 209.497 1347.63 205.755 1347.63 201.762H1345.63C1345.63 205.648 1345.32 209.266 1344.69 212.617L1346.66 212.983ZM1410.95 246.262L1410.57 247.187L1410.58 247.19L1410.95 246.262ZM1396.17 236.44L1395.45 237.132L1395.46 237.138L1396.17 236.44ZM1386.96 221.926L1386.03 222.285L1386.03 222.289L1386.96 221.926ZM1386.79 181.163L1385.84 180.839L1386.79 181.163ZM1395.48 165.779L1394.73 165.119L1394.72 165.124L1395.48 165.779ZM1409.38 155.784L1409.78 156.704L1409.78 156.701L1409.38 155.784ZM1458.49 164.91L1457.73 165.561L1457.74 165.567L1458.49 164.91ZM1466.49 179.512L1465.53 179.813L1465.53 179.816L1466.49 179.512ZM1469.18 208.715V209.715H1470.18V208.715H1469.18ZM1394.44 208.715H1393.44V209.715H1394.44V208.715ZM1394.44 192.027V191.027H1393.44V192.027H1394.44ZM1444.58 192.027V193.027H1445.58V192.027H1444.58ZM1442.67 180.815L1441.76 181.216L1441.76 181.228L1441.77 181.239L1442.67 180.815ZM1413.21 180.033L1412.34 179.533L1412.34 179.54L1412.33 179.548L1413.21 180.033ZM1409.91 189.246L1408.93 189.038L1408.93 189.05L1409.91 189.246ZM1410.43 214.625L1409.48 214.936L1409.48 214.944L1409.48 214.952L1410.43 214.625ZM1415.03 222.882L1414.27 223.529L1414.28 223.535L1414.28 223.54L1415.03 222.882ZM1422.33 228.271L1421.93 229.183L1421.93 229.186L1422.33 228.271ZM1444.76 227.575L1445.17 228.488L1445.17 228.485L1444.76 227.575ZM1454.93 219.492L1455.66 218.815L1454.87 217.953L1454.14 218.872L1454.93 219.492ZM1467.1 232.703L1467.92 233.273L1468.37 232.615L1467.83 232.026L1467.1 232.703ZM1459.01 240.873L1458.41 240.078L1458.4 240.083L1459.01 240.873ZM1446.84 247.305L1447.17 248.251L1447.18 248.247L1446.84 247.305ZM1430.59 248.738C1423.4 248.738 1416.98 247.596 1411.32 245.333L1410.58 247.19C1416.51 249.562 1423.19 250.738 1430.59 250.738V248.738ZM1411.33 245.336C1405.65 243.009 1400.84 239.809 1396.89 235.743L1395.46 237.138C1399.62 241.415 1404.66 244.763 1410.57 247.187L1411.33 245.336ZM1396.9 235.749C1392.99 231.674 1389.99 226.948 1387.89 221.563L1386.03 222.289C1388.22 227.913 1391.36 232.863 1395.45 237.132L1396.9 235.749ZM1387.89 221.566C1385.8 216.124 1384.75 210.336 1384.75 204.195H1382.75C1382.75 210.57 1383.84 216.603 1386.03 222.285L1387.89 221.566ZM1384.75 204.195V200.719H1382.75V204.195H1384.75ZM1384.75 200.719C1384.75 193.687 1385.75 187.28 1387.73 181.488L1385.84 180.839C1383.77 186.867 1382.75 193.497 1382.75 200.719H1384.75ZM1387.73 181.488C1389.72 175.688 1392.56 170.675 1396.23 166.434L1394.72 165.124C1390.87 169.575 1387.91 174.818 1385.84 180.839L1387.73 181.488ZM1396.23 166.44C1399.95 162.209 1404.46 158.965 1409.78 156.704L1408.99 154.864C1403.41 157.239 1398.65 160.658 1394.73 165.119L1396.23 166.44ZM1409.78 156.701C1415.09 154.388 1421.09 153.221 1427.81 153.221V151.221C1420.86 151.221 1414.58 152.429 1408.98 154.868L1409.78 156.701ZM1427.81 153.221C1434.36 153.221 1440.14 154.303 1445.15 156.443L1445.93 154.604C1440.63 152.34 1434.58 151.221 1427.81 151.221V153.221ZM1445.15 156.443C1450.17 158.588 1454.36 161.627 1457.73 165.561L1459.25 164.259C1455.67 160.081 1451.22 156.863 1445.93 154.604L1445.15 156.443ZM1457.74 165.567C1461.17 169.509 1463.77 174.252 1465.53 179.813L1467.44 179.21C1465.61 173.415 1462.88 168.423 1459.25 164.253L1457.74 165.567ZM1465.53 179.816C1467.29 185.323 1468.18 191.476 1468.18 198.285H1470.18C1470.18 191.304 1469.27 184.941 1467.44 179.207L1465.53 179.816ZM1468.18 198.285V208.715H1470.18V198.285H1468.18ZM1469.18 207.715H1394.44V209.715H1469.18V207.715ZM1395.44 208.715V192.027H1393.44V208.715H1395.44ZM1394.44 193.027H1444.58V191.027H1394.44V193.027ZM1445.58 192.027V190.115H1443.58V192.027H1445.58ZM1445.58 190.115C1445.58 186.515 1444.92 183.267 1443.58 180.391L1441.77 181.239C1442.97 183.811 1443.58 186.762 1443.58 190.115H1445.58ZM1443.59 180.415C1442.3 177.459 1440.31 175.103 1437.66 173.372L1436.56 175.048C1438.89 176.562 1440.62 178.61 1441.76 181.216L1443.59 180.415ZM1437.66 173.372C1434.96 171.616 1431.57 170.776 1427.55 170.776V172.776C1431.3 172.776 1434.28 173.559 1436.56 175.048L1437.66 173.372ZM1427.55 170.776C1424.1 170.776 1421.07 171.535 1418.51 173.095L1419.55 174.803C1421.74 173.467 1424.4 172.776 1427.55 172.776V170.776ZM1418.51 173.095C1415.98 174.638 1413.93 176.793 1412.34 179.533L1414.07 180.533C1415.5 178.059 1417.33 176.157 1419.55 174.803L1418.51 173.095ZM1412.33 179.548C1410.83 182.258 1409.7 185.426 1408.93 189.038L1410.88 189.455C1411.62 185.997 1412.69 183.023 1414.08 180.519L1412.33 179.548ZM1408.93 189.05C1408.22 192.601 1407.86 196.492 1407.86 200.719H1409.86C1409.86 196.602 1410.21 192.844 1410.89 189.442L1408.93 189.05ZM1407.86 200.719V204.195H1409.86V200.719H1407.86ZM1407.86 204.195C1407.86 208.054 1408.4 211.637 1409.48 214.936L1411.38 214.314C1410.37 211.239 1409.86 207.869 1409.86 204.195H1407.86ZM1409.48 214.952C1410.62 218.243 1412.21 221.107 1414.27 223.529L1415.8 222.234C1413.91 220.021 1412.44 217.381 1411.37 214.298L1409.48 214.952ZM1414.28 223.54C1416.41 225.968 1418.96 227.85 1421.93 229.183L1422.74 227.358C1420.04 226.142 1417.72 224.432 1415.79 222.223L1414.28 223.54ZM1421.93 229.186C1424.97 230.524 1428.39 231.183 1432.16 231.183V229.183C1428.62 229.183 1425.49 228.566 1422.74 227.355L1421.93 229.186ZM1432.16 231.183C1436.81 231.183 1441.15 230.287 1445.17 228.488L1444.35 226.663C1440.6 228.34 1436.54 229.183 1432.16 229.183V231.183ZM1445.17 228.485C1449.27 226.619 1452.78 223.822 1455.71 220.112L1454.14 218.872C1451.4 222.347 1448.13 224.939 1444.34 226.665L1445.17 228.485ZM1454.19 220.17L1466.36 233.381L1467.83 232.026L1455.66 218.815L1454.19 220.17ZM1466.27 232.133C1464.38 234.868 1461.76 237.519 1458.41 240.078L1459.62 241.668C1463.1 239.012 1465.88 236.216 1467.92 233.273L1466.27 232.133ZM1458.4 240.083C1455.14 242.614 1451.18 244.711 1446.51 246.362L1447.18 248.247C1452.01 246.538 1456.17 244.347 1459.63 241.663L1458.4 240.083ZM1446.52 246.358C1441.89 247.939 1436.59 248.738 1430.59 248.738V250.738C1436.76 250.738 1442.29 249.916 1447.17 248.251L1446.52 246.358ZM1508.47 174.471H1509.47V174.435L1509.46 174.399L1508.47 174.471ZM1508.47 248V249H1509.47V248H1508.47ZM1483.44 248H1482.44V249H1483.44V248ZM1483.44 153.959V152.959H1482.44V153.959H1483.44ZM1506.99 153.959L1507.99 153.887L1507.92 152.959H1506.99V153.959ZM1536.8 153.351L1537.8 153.369L1537.81 152.662L1537.15 152.414L1536.8 153.351ZM1536.37 176.557L1536.22 177.547L1537.34 177.707L1537.37 176.575L1536.37 176.557ZM1531.93 176.122L1531.83 177.117L1531.85 177.119L1531.87 177.12L1531.93 176.122ZM1518.11 177.252L1518.44 178.199L1518.45 178.194L1518.11 177.252ZM1511.68 181.163L1510.98 180.456L1510.97 180.462L1510.96 180.468L1511.68 181.163ZM1507.86 187.508L1506.91 187.178L1506.91 187.188L1506.91 187.198L1507.86 187.508ZM1506.47 196.025L1506.17 196.98L1507.42 197.368L1507.47 196.062L1506.47 196.025ZM1501.43 194.461H1500.43V195.198L1501.13 195.416L1501.43 194.461ZM1503.25 177.687L1504.22 177.919L1504.23 177.916L1503.25 177.687ZM1508.55 164.215L1507.7 163.687L1507.7 163.697L1508.55 164.215ZM1517.25 155.35L1516.72 154.496L1516.72 154.496L1517.25 155.35ZM1533.24 152.568L1533.08 153.556L1533.1 153.559L1533.12 153.561L1533.24 152.568ZM1507.47 174.471V248H1509.47V174.471H1507.47ZM1508.47 247H1483.44V249H1508.47V247ZM1484.44 248V153.959H1482.44V248H1484.44ZM1483.44 154.959H1506.99V152.959H1483.44V154.959ZM1505.99 154.031L1507.47 174.543L1509.46 174.399L1507.99 153.887L1505.99 154.031ZM1535.8 153.332L1535.37 176.538L1537.37 176.575L1537.8 153.369L1535.8 153.332ZM1536.51 175.567C1535.26 175.388 1533.75 175.241 1532 175.124L1531.87 177.12C1533.59 177.235 1535.04 177.377 1536.22 177.547L1536.51 175.567ZM1532.04 175.127C1530.33 174.951 1528.76 174.861 1527.33 174.861V176.861C1528.68 176.861 1530.18 176.946 1531.83 177.117L1532.04 175.127ZM1527.33 174.861C1523.71 174.861 1520.52 175.335 1517.78 176.31L1518.45 178.194C1520.92 177.314 1523.88 176.861 1527.33 176.861V174.861ZM1517.79 176.305C1515.11 177.219 1512.83 178.6 1510.98 180.456L1512.39 181.87C1514.01 180.25 1516.02 179.023 1518.44 178.198L1517.79 176.305ZM1510.96 180.468C1509.17 182.32 1507.83 184.563 1506.91 187.178L1508.8 187.837C1509.63 185.47 1510.83 183.483 1512.4 181.858L1510.96 180.468ZM1506.91 187.198C1506.06 189.795 1505.59 192.729 1505.47 195.989L1507.47 196.062C1507.58 192.948 1508.03 190.204 1508.81 187.817L1506.91 187.198ZM1506.76 195.07L1501.72 193.506L1501.13 195.416L1506.17 196.98L1506.76 195.07ZM1502.43 194.461C1502.43 188.443 1503.03 182.931 1504.22 177.919L1502.28 177.454C1501.04 182.64 1500.43 188.311 1500.43 194.461H1502.43ZM1504.23 177.916C1505.42 172.843 1507.15 168.453 1509.41 164.733L1507.7 163.697C1505.32 167.625 1503.52 172.216 1502.28 177.457L1504.23 177.916ZM1509.4 164.743C1511.71 161.034 1514.5 158.198 1517.77 156.203L1516.72 154.496C1513.16 156.673 1510.15 159.747 1507.7 163.687L1509.4 164.743ZM1517.77 156.203C1521.01 154.222 1524.74 153.221 1528.98 153.221V151.221C1524.41 151.221 1520.32 152.305 1516.72 154.496L1517.77 156.203ZM1528.98 153.221C1530.31 153.221 1531.68 153.332 1533.08 153.556L1533.4 151.581C1531.9 151.341 1530.42 151.221 1528.98 151.221V153.221ZM1533.12 153.561C1534.52 153.73 1535.62 153.977 1536.45 154.287L1537.15 152.414C1536.12 152.029 1534.85 151.755 1533.36 151.575L1533.12 153.561Z" fill="white" mask="url(#path-15-outside-1_64_2)"/>
</svg>
