<svg width="399" height="387" viewBox="0 0 399 387" fill="none" xmlns="http://www.w3.org/2000/svg">
<path d="M201.793 30.6911C203.497 29.7125 205.593 29.7174 207.293 30.7038L228.926 43.2607C230.626 44.2471 231.67 46.0652 231.665 48.0302L231.607 73.0438C231.603 75.0087 230.55 76.822 228.846 77.8005L207.155 90.2572C205.451 91.2358 203.354 91.2309 201.655 90.2445L180.022 77.6876C178.322 76.7012 177.278 74.8831 177.283 72.9181L177.34 47.9046C177.345 45.9396 178.397 44.1263 180.101 43.1478L201.793 30.6911Z" fill="#FF9000" stroke="#FF9000" stroke-linejoin="round"/>
<path d="M203.352 4.89975C204.127 4.45495 205.08 4.45716 205.852 4.90553L252.042 31.7156C252.814 32.164 253.289 32.9904 253.287 33.8835L253.163 87.2898C253.161 88.183 252.683 89.0072 251.908 89.452L205.595 116.048C204.821 116.493 203.868 116.491 203.095 116.042L156.906 89.2323C156.134 88.7839 155.659 87.9575 155.661 87.0644L155.785 33.6581C155.787 32.7649 156.265 31.9407 157.04 31.4959L203.352 4.89975Z" stroke="#FF9000" stroke-width="7"/>
<path d="M58.2934 163.404C59.6876 162.603 61.4029 162.607 62.7934 163.414L85.4255 176.55C86.816 177.358 87.6702 178.845 87.6665 180.453L87.606 206.621C87.6023 208.229 86.7412 209.712 85.347 210.513L62.6544 223.545C61.2602 224.345 59.5448 224.341 58.1544 223.534L35.5222 210.398C34.1318 209.591 33.2775 208.103 33.2812 206.495L33.3417 180.327C33.3455 178.719 34.2066 177.236 35.6007 176.435L58.2934 163.404Z" fill="#FF9000" stroke="#FF9000"/>
<path d="M59.3525 137.9C60.127 137.455 61.08 137.457 61.8525 137.906L108.042 164.716C108.814 165.164 109.289 165.99 109.287 166.884L109.163 220.29C109.161 221.183 108.683 222.007 107.908 222.452L61.5955 249.048C60.821 249.493 59.868 249.491 59.0955 249.042L12.9061 222.232C12.1336 221.784 11.659 220.958 11.6611 220.064L11.7846 166.658C11.7866 165.765 12.265 164.941 13.0396 164.496L59.3525 137.9Z" stroke="#FF9000" stroke-width="7"/>
<path d="M197.044 162.97C198.593 162.08 200.499 162.085 202.044 162.982L224.677 176.118C226.221 177.015 227.171 178.668 227.167 180.454L227.106 206.622C227.102 208.409 226.145 210.057 224.596 210.947L201.903 223.978C200.354 224.868 198.448 224.863 196.903 223.967L174.271 210.83C172.726 209.933 171.777 208.281 171.781 206.494L171.842 180.326C171.846 178.54 172.803 176.891 174.352 176.002L197.044 162.97Z" fill="#FF9000"/>
<path d="M198.352 137.9C199.127 137.455 200.08 137.457 200.852 137.906L247.042 164.716C247.814 165.164 248.289 165.99 248.287 166.884L248.163 220.29C248.161 221.183 247.683 222.007 246.908 222.452L200.595 249.048C199.821 249.493 198.868 249.491 198.095 249.042L151.906 222.232C151.134 221.784 150.659 220.958 150.661 220.064L150.785 166.658C150.787 165.765 151.265 164.941 152.04 164.496L198.352 137.9Z" stroke="#FF9000" stroke-width="7"/>
<path d="M336.044 162.97C337.593 162.08 339.499 162.085 341.044 162.982L363.677 176.118C365.221 177.015 366.171 178.668 366.167 180.454L366.106 206.622C366.102 208.409 365.145 210.057 363.596 210.947L340.903 223.978C339.354 224.868 337.448 224.863 335.903 223.967L313.271 210.83C311.726 209.933 310.777 208.281 310.781 206.494L310.842 180.326C310.846 178.54 311.803 176.891 313.352 176.002L336.044 162.97Z" fill="#FF9000"/>
<path d="M337.352 137.9C338.127 137.455 339.08 137.457 339.852 137.906L386.042 164.716C386.814 165.164 387.289 165.99 387.287 166.884L387.163 220.29C387.161 221.183 386.683 222.007 385.908 222.452L339.595 249.048C338.821 249.493 337.868 249.491 337.095 249.042L290.906 222.232C290.134 221.784 289.659 220.958 289.661 220.064L289.785 166.658C289.787 165.765 290.265 164.941 291.04 164.496L337.352 137.9Z" stroke="#FF9000" stroke-width="7"/>
<path d="M197.044 295.97C198.593 295.08 200.499 295.085 202.044 295.982L224.677 309.118C226.221 310.015 227.171 311.668 227.167 313.454L227.106 339.622C227.102 341.409 226.145 343.057 224.596 343.947L201.903 356.978C200.354 357.868 198.448 357.863 196.903 356.967L174.271 343.83C172.726 342.933 171.777 341.281 171.781 339.494L171.842 313.326C171.846 311.54 172.803 309.891 174.352 309.002L197.044 295.97Z" fill="#FF9000"/>
<path d="M198.352 270.9C199.127 270.455 200.08 270.457 200.852 270.906L247.042 297.716C247.814 298.164 248.289 298.99 248.287 299.884L248.163 353.29C248.161 354.183 247.683 355.007 246.908 355.452L200.595 382.048C199.821 382.493 198.868 382.491 198.095 382.042L151.906 355.232C151.134 354.784 150.659 353.958 150.661 353.064L150.785 299.658C150.787 298.765 151.265 297.941 152.04 297.496L198.352 270.9Z" stroke="#FF9000" stroke-width="7"/>
<line x1="201.65" y1="79.6369" x2="72.6501" y2="173.637" stroke="#FF9000" stroke-width="9"/>
<line x1="327.904" y1="214.437" x2="211.904" y2="312.438" stroke="#FF9000" stroke-width="9"/>
<line x1="178" y1="197.5" x2="75" y2="197.5" stroke="#FF9000" stroke-width="9"/>
<line x1="197.5" y1="313" x2="197.5" y2="200" stroke="#FF9000" stroke-width="9"/>
</svg>
