<svg id="Livello_1" data-name="Livello 1" xmlns="http://www.w3.org/2000/svg" viewBox="0 0 489.50003 489.51001"><defs><style>.cls-1{fill:#ff9000;}</style></defs><title>svg-mobile</title><path class="cls-1" d="M500.00957,185.82781l-.48-1.38h-261.67l-6.96,15.72h-34.96l21.11-47.68H485.61955l-1.64-3.03a244.89748,244.89748,0,0,0-21.08-32.48h-275.16l-43.97,99.31006h230.27l-14.39,33.23.02.38-7.86,17.74h-34.96l8.58-19.38h-231.4l72.89-163.23h266.6a244.85076,244.85076,0,0,0-396.16,261.15991l.48,1.38h243.62l6.96-15.72h34.95l-21.11,47.68h-250.51l1.64,3.03a245.96621,245.96621,0,0,0,21.09,32.48h257.09l43.97-99.31006h-230.89l13.02-29.3a7.98071,7.98071,0,0,0,1.93-4.23l7.88-17.81994h34.95l-8.58,19.38h231.61l-11.73,26.14-61.35,137.09h-248.53A244.89166,244.89166,0,0,0,500.00957,185.82781Z" transform="translate(-23.90959 -21.22771)"/></svg>