<svg width="1442" height="296" viewBox="0 0 1442 296" fill="none" xmlns="http://www.w3.org/2000/svg">
<path d="M402.134 176.016C402.134 173.061 401.67 170.453 400.743 168.193C399.874 165.876 398.31 163.79 396.05 161.936C393.848 160.081 390.777 158.314 386.837 156.634C382.955 154.953 378.03 153.244 372.062 151.506C365.804 149.652 360.154 147.595 355.113 145.335C350.072 143.017 345.756 140.381 342.163 137.426C338.571 134.471 335.818 131.081 333.906 127.257C331.994 123.433 331.038 119.058 331.038 114.133C331.038 109.208 332.052 104.659 334.08 100.487C336.108 96.3154 339.005 92.694 342.771 89.623C346.596 86.4941 351.144 84.0605 356.417 82.3223C361.69 80.584 367.571 79.7148 374.061 79.7148C383.563 79.7148 391.617 81.54 398.223 85.1904C404.886 88.7829 409.956 93.5052 413.433 99.3574C416.909 105.152 418.647 111.352 418.647 117.957H401.96C401.96 113.206 400.946 109.005 398.918 105.354C396.89 101.646 393.819 98.749 389.705 96.6631C385.591 94.5192 380.376 93.4473 374.061 93.4473C368.092 93.4473 363.167 94.3454 359.285 96.1416C355.403 97.9378 352.506 100.371 350.594 103.442C348.74 106.513 347.812 110.019 347.812 113.959C347.812 116.624 348.363 119.058 349.464 121.26C350.623 123.404 352.39 125.403 354.766 127.257C357.199 129.111 360.27 130.82 363.979 132.385C367.745 133.949 372.235 135.456 377.45 136.904C384.635 138.932 390.835 141.192 396.05 143.684C401.265 146.175 405.552 148.985 408.913 152.114C412.332 155.185 414.852 158.691 416.475 162.631C418.155 166.513 418.995 170.917 418.995 175.842C418.995 180.999 417.952 185.663 415.866 189.835C413.78 194.007 410.796 197.57 406.914 200.525C403.032 203.48 398.368 205.769 392.921 207.392C387.532 208.956 381.506 209.738 374.843 209.738C368.991 209.738 363.225 208.927 357.547 207.305C351.926 205.682 346.799 203.249 342.163 200.004C337.586 196.759 333.906 192.761 331.125 188.01C328.402 183.201 327.04 177.638 327.04 171.322H343.728C343.728 175.668 344.568 179.405 346.248 182.534C347.928 185.605 350.217 188.155 353.114 190.183C356.069 192.211 359.401 193.717 363.109 194.702C366.876 195.629 370.787 196.093 374.843 196.093C380.695 196.093 385.649 195.282 389.705 193.659C393.761 192.037 396.832 189.719 398.918 186.706C401.062 183.693 402.134 180.13 402.134 176.016ZM453.935 132.646V208H437.769V113.959H453.065L453.935 132.646ZM450.632 157.416L443.157 157.155C443.215 150.724 444.055 144.785 445.678 139.338C447.3 133.833 449.705 129.053 452.892 124.997C456.078 120.941 460.048 117.812 464.799 115.61C469.55 113.351 475.055 112.221 481.312 112.221C485.716 112.221 489.772 112.858 493.48 114.133C497.189 115.35 500.405 117.291 503.128 119.956C505.851 122.621 507.966 126.04 509.473 130.212C510.979 134.384 511.732 139.425 511.732 145.335V208H495.653V146.117C495.653 141.192 494.813 137.252 493.133 134.297C491.51 131.342 489.193 129.198 486.18 127.865C483.167 126.475 479.632 125.779 475.576 125.779C470.825 125.779 466.856 126.619 463.669 128.3C460.482 129.98 457.933 132.298 456.021 135.253C454.108 138.208 452.718 141.598 451.849 145.422C451.037 149.188 450.632 153.186 450.632 157.416ZM511.559 148.551L500.781 151.854C500.839 146.697 501.679 141.743 503.302 136.991C504.982 132.24 507.387 128.01 510.516 124.302C513.702 120.593 517.614 117.667 522.249 115.523C526.884 113.322 532.186 112.221 538.154 112.221C543.195 112.221 547.657 112.887 551.539 114.22C555.479 115.552 558.782 117.609 561.447 120.391C564.171 123.114 566.228 126.619 567.618 130.907C569.009 135.195 569.704 140.294 569.704 146.204V208H553.538V146.03C553.538 140.757 552.698 136.673 551.018 133.775C549.395 130.82 547.077 128.763 544.064 127.604C541.109 126.388 537.575 125.779 533.461 125.779C529.926 125.779 526.798 126.388 524.074 127.604C521.351 128.821 519.062 130.502 517.208 132.646C515.354 134.731 513.934 137.136 512.949 139.859C512.022 142.583 511.559 145.48 511.559 148.551ZM649.491 191.921V143.51C649.491 139.801 648.738 136.586 647.231 133.862C645.783 131.081 643.581 128.937 640.626 127.431C637.671 125.924 634.021 125.171 629.675 125.171C625.619 125.171 622.055 125.866 618.984 127.257C615.971 128.647 613.596 130.473 611.857 132.732C610.177 134.992 609.337 137.426 609.337 140.033H593.258C593.258 136.673 594.127 133.341 595.865 130.038C597.604 126.735 600.095 123.751 603.34 121.086C606.643 118.363 610.583 116.219 615.16 114.654C619.796 113.032 624.952 112.221 630.631 112.221C637.468 112.221 643.494 113.38 648.709 115.697C653.982 118.015 658.096 121.521 661.051 126.214C664.064 130.849 665.57 136.673 665.57 143.684V187.488C665.57 190.617 665.831 193.949 666.353 197.483C666.932 201.018 667.772 204.06 668.873 206.609V208H652.099C651.287 206.146 650.65 203.683 650.187 200.612C649.723 197.483 649.491 194.586 649.491 191.921ZM652.272 150.984L652.446 162.283H636.193C631.616 162.283 627.531 162.66 623.938 163.413C620.346 164.108 617.333 165.18 614.899 166.629C612.466 168.077 610.612 169.903 609.337 172.104C608.062 174.248 607.425 176.769 607.425 179.666C607.425 182.621 608.091 185.315 609.424 187.749C610.757 190.183 612.756 192.124 615.421 193.572C618.144 194.963 621.476 195.658 625.416 195.658C630.341 195.658 634.687 194.615 638.453 192.529C642.219 190.443 645.203 187.894 647.405 184.881C649.665 181.868 650.882 178.942 651.056 176.103L657.922 183.838C657.516 186.271 656.415 188.966 654.619 191.921C652.823 194.876 650.418 197.715 647.405 200.438C644.45 203.104 640.916 205.335 636.802 207.131C632.746 208.869 628.168 209.738 623.069 209.738C616.696 209.738 611.104 208.493 606.295 206.001C601.544 203.509 597.835 200.178 595.17 196.006C592.562 191.776 591.259 187.054 591.259 181.839C591.259 176.798 592.244 172.365 594.214 168.541C596.184 164.659 599.023 161.443 602.731 158.894C606.44 156.286 610.901 154.316 616.116 152.983C621.331 151.651 627.154 150.984 633.586 150.984H652.272ZM706.941 128.734V208H690.862V113.959H706.507L706.941 128.734ZM736.318 113.438L736.231 128.387C734.899 128.097 733.624 127.923 732.407 127.865C731.248 127.749 729.916 127.691 728.409 127.691C724.701 127.691 721.427 128.271 718.588 129.43C715.749 130.589 713.344 132.211 711.374 134.297C709.404 136.383 707.84 138.874 706.681 141.771C705.58 144.611 704.855 147.74 704.508 151.158L699.988 153.766C699.988 148.087 700.539 142.757 701.64 137.773C702.799 132.79 704.566 128.387 706.941 124.562C709.317 120.68 712.33 117.667 715.98 115.523C719.689 113.322 724.092 112.221 729.191 112.221C730.35 112.221 731.683 112.366 733.189 112.655C734.696 112.887 735.739 113.148 736.318 113.438ZM794.898 113.959V126.301H744.054V113.959H794.898ZM761.263 91.1006H777.342V184.707C777.342 187.894 777.834 190.299 778.819 191.921C779.804 193.543 781.079 194.615 782.644 195.137C784.208 195.658 785.888 195.919 787.685 195.919C789.017 195.919 790.408 195.803 791.856 195.571C793.363 195.282 794.493 195.05 795.246 194.876L795.333 208C794.058 208.406 792.378 208.782 790.292 209.13C788.264 209.535 785.801 209.738 782.904 209.738C778.964 209.738 775.343 208.956 772.04 207.392C768.737 205.827 766.101 203.22 764.131 199.569C762.219 195.861 761.263 190.878 761.263 184.62V91.1006ZM851.653 208H824.102L824.275 187.662H851.653C858.491 187.662 864.256 186.127 868.949 183.056C873.643 179.927 877.177 175.378 879.553 169.41C881.986 163.442 883.203 156.228 883.203 147.769V141.598C883.203 135.108 882.508 129.401 881.117 124.476C879.785 119.55 877.785 115.408 875.12 112.047C872.455 108.686 869.181 106.166 865.299 104.485C861.417 102.747 856.955 101.878 851.914 101.878H823.58V81.4531H851.914C860.374 81.4531 868.109 82.9017 875.12 85.7988C882.189 88.638 888.302 92.723 893.459 98.0537C898.616 103.384 902.585 109.758 905.366 117.175C908.205 124.534 909.625 132.732 909.625 141.771V147.769C909.625 156.75 908.205 164.949 905.366 172.365C902.585 179.782 898.616 186.156 893.459 191.486C888.36 196.759 882.247 200.844 875.12 203.741C868.051 206.58 860.229 208 851.653 208ZM838.877 81.4531V208H812.803V81.4531H838.877ZM952.039 134.471V208H927.008V113.959H950.562L952.039 134.471ZM980.373 113.351L979.938 136.557C978.722 136.383 977.244 136.238 975.506 136.122C973.826 135.948 972.29 135.861 970.899 135.861C967.365 135.861 964.294 136.325 961.687 137.252C959.137 138.121 956.993 139.425 955.255 141.163C953.575 142.901 952.3 145.016 951.431 147.508C950.619 149.999 950.156 152.839 950.04 156.025L944.999 154.461C944.999 148.377 945.607 142.785 946.824 137.687C948.041 132.53 949.808 128.039 952.126 124.215C954.502 120.391 957.399 117.436 960.817 115.35C964.236 113.264 968.147 112.221 972.551 112.221C973.941 112.221 975.361 112.337 976.81 112.568C978.258 112.742 979.446 113.003 980.373 113.351ZM985.588 161.936V160.11C985.588 153.215 986.573 146.87 988.543 141.076C990.513 135.224 993.381 130.154 997.147 125.866C1000.91 121.578 1005.55 118.247 1011.05 115.871C1016.56 113.438 1022.87 112.221 1030 112.221C1037.13 112.221 1043.47 113.438 1049.04 115.871C1054.6 118.247 1059.26 121.578 1063.03 125.866C1066.85 130.154 1069.75 135.224 1071.72 141.076C1073.69 146.87 1074.67 153.215 1074.67 160.11V161.936C1074.67 168.773 1073.69 175.118 1071.72 180.97C1069.75 186.764 1066.85 191.834 1063.03 196.18C1059.26 200.467 1054.63 203.799 1049.12 206.175C1043.62 208.55 1037.3 209.738 1030.17 209.738C1023.05 209.738 1016.7 208.55 1011.14 206.175C1005.64 203.799 1000.97 200.467 997.147 196.18C993.381 191.834 990.513 186.764 988.543 180.97C986.573 175.118 985.588 168.773 985.588 161.936ZM1010.62 160.11V161.936C1010.62 165.876 1010.97 169.555 1011.66 172.974C1012.36 176.392 1013.46 179.405 1014.96 182.013C1016.53 184.562 1018.56 186.561 1021.05 188.01C1023.54 189.458 1026.58 190.183 1030.17 190.183C1033.65 190.183 1036.64 189.458 1039.13 188.01C1041.62 186.561 1043.62 184.562 1045.12 182.013C1046.63 179.405 1047.73 176.392 1048.43 172.974C1049.18 169.555 1049.56 165.876 1049.56 161.936V160.11C1049.56 156.286 1049.18 152.694 1048.43 149.333C1047.73 145.914 1046.6 142.901 1045.04 140.294C1043.53 137.629 1041.53 135.543 1039.04 134.036C1036.55 132.53 1033.54 131.776 1030 131.776C1026.47 131.776 1023.45 132.53 1020.96 134.036C1018.53 135.543 1016.53 137.629 1014.96 140.294C1013.46 142.901 1012.36 145.914 1011.66 149.333C1010.97 152.694 1010.62 156.286 1010.62 160.11ZM1115.09 132.037V244.156H1090.06V113.959H1113.26L1115.09 132.037ZM1174.63 159.937V161.762C1174.63 168.599 1173.81 174.944 1172.19 180.796C1170.63 186.648 1168.31 191.747 1165.24 196.093C1162.17 200.381 1158.34 203.741 1153.77 206.175C1149.25 208.55 1144.03 209.738 1138.12 209.738C1132.39 209.738 1127.4 208.579 1123.17 206.262C1118.94 203.944 1115.38 200.699 1112.48 196.527C1109.64 192.298 1107.35 187.401 1105.62 181.839C1103.88 176.276 1102.55 170.308 1101.62 163.935V159.154C1102.55 152.317 1103.88 146.059 1105.62 140.381C1107.35 134.645 1109.64 129.69 1112.48 125.519C1115.38 121.289 1118.91 118.015 1123.09 115.697C1127.32 113.38 1132.27 112.221 1137.95 112.221C1143.92 112.221 1149.16 113.351 1153.68 115.61C1158.26 117.87 1162.08 121.115 1165.15 125.345C1168.28 129.575 1170.63 134.616 1172.19 140.468C1173.81 146.32 1174.63 152.81 1174.63 159.937ZM1149.51 161.762V159.937C1149.51 155.938 1149.16 152.259 1148.46 148.898C1147.83 145.48 1146.78 142.496 1145.34 139.946C1143.95 137.397 1142.09 135.427 1139.77 134.036C1137.51 132.588 1134.76 131.863 1131.52 131.863C1128.1 131.863 1125.17 132.414 1122.74 133.515C1120.36 134.616 1118.42 136.209 1116.92 138.295C1115.41 140.381 1114.28 142.872 1113.53 145.77C1112.77 148.667 1112.31 151.94 1112.13 155.591V167.672C1112.42 171.96 1113.24 175.813 1114.57 179.231C1115.9 182.592 1117.96 185.257 1120.74 187.228C1123.52 189.198 1127.17 190.183 1131.69 190.183C1134.99 190.183 1137.77 189.458 1140.03 188.01C1142.29 186.503 1144.12 184.446 1145.51 181.839C1146.96 179.231 1147.97 176.218 1148.55 172.8C1149.19 169.381 1149.51 165.702 1149.51 161.762ZM1215.21 132.037V244.156H1190.18V113.959H1213.39L1215.21 132.037ZM1274.75 159.937V161.762C1274.75 168.599 1273.94 174.944 1272.32 180.796C1270.75 186.648 1268.44 191.747 1265.36 196.093C1262.29 200.381 1258.47 203.741 1253.89 206.175C1249.37 208.55 1244.16 209.738 1238.25 209.738C1232.51 209.738 1227.53 208.579 1223.3 206.262C1219.07 203.944 1215.5 200.699 1212.61 196.527C1209.77 192.298 1207.48 187.401 1205.74 181.839C1204 176.276 1202.67 170.308 1201.74 163.935V159.154C1202.67 152.317 1204 146.059 1205.74 140.381C1207.48 134.645 1209.77 129.69 1212.61 125.519C1215.5 121.289 1219.04 118.015 1223.21 115.697C1227.44 113.38 1232.39 112.221 1238.07 112.221C1244.04 112.221 1249.29 113.351 1253.8 115.61C1258.38 117.87 1262.21 121.115 1265.28 125.345C1268.41 129.575 1270.75 134.616 1272.32 140.468C1273.94 146.32 1274.75 152.81 1274.75 159.937ZM1249.63 161.762V159.937C1249.63 155.938 1249.29 152.259 1248.59 148.898C1247.95 145.48 1246.91 142.496 1245.46 139.946C1244.07 137.397 1242.22 135.427 1239.9 134.036C1237.64 132.588 1234.89 131.863 1231.64 131.863C1228.22 131.863 1225.3 132.414 1222.86 133.515C1220.49 134.616 1218.55 136.209 1217.04 138.295C1215.53 140.381 1214.4 142.872 1213.65 145.77C1212.9 148.667 1212.43 151.94 1212.26 155.591V167.672C1212.55 171.96 1213.36 175.813 1214.69 179.231C1216.03 182.592 1218.08 185.257 1220.86 187.228C1223.65 189.198 1227.3 190.183 1231.82 190.183C1235.12 190.183 1237.9 189.458 1240.16 188.01C1242.42 186.503 1244.24 184.446 1245.63 181.839C1247.08 179.231 1248.1 176.218 1248.68 172.8C1249.31 169.381 1249.63 165.702 1249.63 161.762ZM1333.59 209.738C1326.29 209.738 1319.74 208.579 1313.95 206.262C1308.15 203.886 1303.23 200.612 1299.17 196.44C1295.18 192.269 1292.1 187.43 1289.96 181.926C1287.82 176.363 1286.75 170.453 1286.75 164.195V160.719C1286.75 153.592 1287.76 147.073 1289.79 141.163C1291.82 135.253 1294.71 130.125 1298.48 125.779C1302.3 121.434 1306.94 118.102 1312.38 115.784C1317.83 113.409 1323.97 112.221 1330.81 112.221C1337.47 112.221 1343.38 113.322 1348.54 115.523C1353.7 117.725 1358.01 120.854 1361.49 124.91C1365.03 128.966 1367.69 133.833 1369.49 139.512C1371.28 145.132 1372.18 151.39 1372.18 158.285V168.715H1297.44V152.027H1347.58V150.115C1347.58 146.639 1346.95 143.539 1345.67 140.815C1344.46 138.034 1342.6 135.832 1340.11 134.21C1337.62 132.588 1334.43 131.776 1330.55 131.776C1327.25 131.776 1324.41 132.501 1322.03 133.949C1319.66 135.398 1317.72 137.426 1316.21 140.033C1314.76 142.641 1313.66 145.712 1312.91 149.246C1312.21 152.723 1311.86 156.547 1311.86 160.719V164.195C1311.86 167.962 1312.38 171.438 1313.43 174.625C1314.53 177.812 1316.06 180.564 1318.03 182.882C1320.06 185.2 1322.5 186.996 1325.33 188.271C1328.23 189.545 1331.51 190.183 1335.16 190.183C1339.68 190.183 1343.88 189.313 1347.76 187.575C1351.7 185.779 1355.09 183.085 1357.93 179.492L1370.1 192.703C1368.13 195.542 1365.43 198.266 1362.01 200.873C1358.65 203.48 1354.6 205.624 1349.84 207.305C1345.09 208.927 1339.68 209.738 1333.59 209.738ZM1411.47 134.471V208H1386.44V113.959H1409.99L1411.47 134.471ZM1439.8 113.351L1439.37 136.557C1438.15 136.383 1436.67 136.238 1434.93 136.122C1433.25 135.948 1431.72 135.861 1430.33 135.861C1426.79 135.861 1423.72 136.325 1421.11 137.252C1418.56 138.121 1416.42 139.425 1414.68 141.163C1413 142.901 1411.73 145.016 1410.86 147.508C1410.05 149.999 1409.58 152.839 1409.47 156.025L1404.43 154.461C1404.43 148.377 1405.04 142.785 1406.25 137.687C1407.47 132.53 1409.24 128.039 1411.55 124.215C1413.93 120.391 1416.83 117.436 1420.25 115.35C1423.66 113.264 1427.57 112.221 1431.98 112.221C1433.37 112.221 1434.79 112.337 1436.24 112.568C1437.69 112.742 1438.87 113.003 1439.8 113.351Z" fill="white"/>
<path d="M287.897 99.5069L287.595 98.6603H129.345L125.112 108.155H103.948L116.707 79.3077H279.129L278.161 77.4935C274.412 70.5991 270.179 64.0676 265.402 57.8385H99.0497L72.443 117.892H211.705L202.997 137.97V138.212L198.22 148.916H177.056L182.256 137.184H42.3895L86.472 38.5465H247.685C187.215 -16.4872 93.5469 -12.0724 38.5194 48.4647C2.11655 88.5002 -9.55412 145.288 8.10306 196.511L8.40541 197.358H155.71L159.943 187.863H181.107L168.348 216.711H16.8107L17.7782 218.525C21.5274 225.419 25.7603 231.951 30.5374 238.18H186.005L212.612 178.127H72.9872L80.8483 160.407C81.453 159.681 81.8763 158.774 81.9972 157.867L86.7743 147.102H107.878L102.678 158.834H242.726L235.651 174.619L198.523 257.532H48.3155C108.846 312.506 202.514 308.03 257.481 247.493C293.883 207.337 305.554 150.67 287.897 99.5069Z" fill="white"/>
</svg>
